<?xml version="1.0" standalone="no"?>
<!DOCTYPE svg PUBLIC "-//W3C//DTD SVG 20010904//EN"
 "http://www.w3.org/TR/2001/REC-SVG-20010904/DTD/svg10.dtd">
<svg version="1.0" xmlns="http://www.w3.org/2000/svg"
 width="512.000000pt" height="512.000000pt" viewBox="0 0 512.000000 512.000000"
 preserveAspectRatio="xMidYMid meet">
<metadata>
Created by potrace 1.14, written by Peter Selinger 2001-2017
</metadata>
<g transform="translate(0.000000,512.000000) scale(0.100000,-0.100000)"
fill="#000000" stroke="none">
<path d="M4 4256 c-3 -7 -3 -84 -2 -171 l3 -160 55 -1 c55 -1 202 -12 250 -18
38 -5 122 -18 145 -22 11 -2 34 -7 50 -10 17 -2 48 -10 70 -16 22 -5 45 -11
50 -12 39 -7 155 -41 155 -45 0 -4 -21 -17 -47 -31 -386 -198 -658 -584 -720
-1020 -4 -30 -8 -118 -7 -195 0 -127 4 -182 19 -255 3 -14 7 -36 10 -50 12
-60 71 -221 106 -292 77 -152 152 -255 274 -373 324 -314 765 -448 1203 -365
113 21 253 65 326 102 21 11 42 16 46 11 8 -8 74 -104 426 -613 74 -107 139
-195 144 -195 7 0 189 258 459 650 42 61 85 123 96 138 l20 28 65 -30 c75 -34
209 -75 295 -91 351 -65 707 4 999 195 101 66 132 91 226 185 159 158 266 334
335 548 87 270 83 600 -12 867 -104 294 -318 555 -588 718 -34 20 -73 41 -89
46 -36 14 -27 26 31 41 27 7 53 14 58 16 180 48 417 84 590 88 l70 2 3 171 2
171 -102 -4 c-57 -2 -121 -5 -143 -8 -22 -3 -67 -8 -100 -11 -157 -16 -454
-84 -610 -141 -181 -66 -388 -163 -519 -243 -38 -22 -72 -41 -76 -41 -5 0 -10
-3 -12 -7 -1 -5 -37 -30 -78 -58 -41 -27 -82 -55 -90 -62 -8 -6 -53 -42 -100
-79 -107 -85 -344 -322 -434 -434 -79 -99 -207 -288 -256 -377 -19 -35 -37
-63 -40 -63 -3 0 -19 24 -34 53 -43 80 -186 292 -262 387 -88 110 -315 338
-425 427 -503 407 -1111 637 -1737 657 -64 2 -95 -1 -98 -8z m1406 -758 c162
-108 266 -193 410 -338 196 -196 353 -416 480 -673 l68 -139 -20 -71 c-98
-355 -398 -637 -763 -717 -168 -37 -374 -27 -535 27 -314 104 -556 347 -659
663 -38 116 -50 207 -46 345 8 254 97 472 269 662 141 155 377 283 568 309 24
4 45 8 47 10 2 1 18 2 35 0 20 -1 74 -30 146 -78z m2542 66 c9 -3 26 -7 37 -9
12 -3 31 -7 42 -10 62 -13 188 -68 269 -116 85 -51 202 -158 265 -244 17 -22
36 -46 43 -54 7 -7 35 -59 62 -115 120 -245 140 -522 54 -780 -137 -415 -530
-698 -969 -697 -60 0 -121 2 -135 5 -13 3 -42 8 -65 12 -99 14 -274 87 -380
159 -78 52 -210 184 -262 260 -54 81 -117 214 -141 301 l-20 71 73 149 c61
125 200 356 224 374 4 3 18 21 31 40 13 19 27 37 30 40 3 3 23 27 45 55 62 78
241 254 340 336 49 41 146 111 215 157 123 82 125 83 175 77 27 -3 58 -8 67
-11z m-1391 -1724 c5 0 9 8 9 18 0 10 14 -4 33 -33 61 -95 88 -128 180 -223
l68 -69 -103 -149 c-57 -82 -111 -160 -121 -174 -10 -14 -27 -40 -39 -58 -11
-18 -24 -32 -29 -30 -4 2 -55 71 -112 153 -56 83 -120 174 -141 203 l-37 54
60 61 c91 94 117 126 169 204 26 39 48 65 50 57 2 -8 8 -14 13 -14z"/>
<path d="M1315 3239 c-95 -8 -148 -21 -232 -59 -238 -108 -390 -337 -398 -600
-8 -300 176 -567 460 -665 52 -18 211 -45 229 -40 6 2 37 6 69 9 240 23 455
185 551 414 74 177 68 385 -16 561 -120 248 -388 402 -663 380z m195 -372
c209 -100 259 -368 101 -539 -22 -25 -66 -57 -98 -74 -52 -26 -68 -29 -148
-29 -104 1 -157 20 -225 81 -191 172 -132 483 108 574 72 27 191 21 262 -13z"/>
<path d="M3684 3238 c-456 -51 -734 -521 -558 -941 186 -441 764 -560 1102
-226 139 136 206 295 205 489 0 123 -19 203 -70 305 -126 253 -402 405 -679
373z m217 -372 c104 -49 185 -166 192 -277 10 -145 -71 -282 -202 -343 -67
-31 -206 -29 -275 3 -247 116 -270 452 -41 599 62 40 112 52 195 49 56 -3 89
-10 131 -31z"/>
</g>
</svg>
