<svg width="3861" height="2414" xmlns="http://www.w3.org/2000/svg" xmlns:xlink="http://www.w3.org/1999/xlink" xml:space="preserve" overflow="hidden"><defs><filter id="fx0" x="-10%" y="-10%" width="120%" height="120%" filterUnits="userSpaceOnUse" primitiveUnits="userSpaceOnUse"><feComponentTransfer color-interpolation-filters="sRGB"><feFuncR type="discrete" tableValues="0.431373 0.431373"/><feFuncG type="discrete" tableValues="0.454902 0.454902"/><feFuncB type="discrete" tableValues="0.478431 0.478431"/><feFuncA type="linear" slope="0.431373" intercept="0"/></feComponentTransfer><feGaussianBlur stdDeviation="1.49833 1.49833"/></filter><filter id="fx1" x="-10%" y="-10%" width="120%" height="120%" filterUnits="userSpaceOnUse" primitiveUnits="userSpaceOnUse"><feComponentTransfer color-interpolation-filters="sRGB"><feFuncR type="discrete" tableValues="0.431373 0.431373"/><feFuncG type="discrete" tableValues="0.454902 0.454902"/><feFuncB type="discrete" tableValues="0.478431 0.478431"/><feFuncA type="linear" slope="0.431373" intercept="0"/></feComponentTransfer><feGaussianBlur stdDeviation="1.49833 1.49833"/></filter><filter id="fx2" x="-10%" y="-10%" width="120%" height="120%" filterUnits="userSpaceOnUse" primitiveUnits="userSpaceOnUse"><feComponentTransfer color-interpolation-filters="sRGB"><feFuncR type="discrete" tableValues="0.431373 0.431373"/><feFuncG type="discrete" tableValues="0.454902 0.454902"/><feFuncB type="discrete" tableValues="0.478431 0.478431"/><feFuncA type="linear" slope="0.431373" intercept="0"/></feComponentTransfer><feGaussianBlur stdDeviation="1.75464 1.75464"/></filter><clipPath id="clip3"><rect x="43" y="29" width="237" height="81"/></clipPath><clipPath id="clip4"><rect x="41" y="29" width="411" height="67"/></clipPath><clipPath id="clip5"><rect x="56" y="97" width="60" height="23"/></clipPath></defs><g transform="translate(-143 -150)"><path d="M1863 1970C1863 1947.36 1881.36 1929 1904 1929L2321 1929C2343.64 1929 2362 1947.36 2362 1970L2362 2134C2362 2156.64 2343.64 2175 2321 2175L1904 2175C1881.36 2175 1863 2156.64 1863 2134Z" stroke="#0070C0" stroke-width="16.0417" stroke-miterlimit="8" fill="none" fill-rule="evenodd"/><text fill="#002060" font-family="Comic Sans MS,Comic Sans MS_MSFontService,sans-serif" font-weight="700" font-size="83" transform="matrix(1 0 0 1 1938.9 2080)">Ontology</text><rect x="1246" y="2095" width="476" height="128" fill="#5B9BD5" fill-opacity="0.603922"/><text fill="#002060" font-family="Comic Sans MS,Comic Sans MS_MSFontService,sans-serif" font-weight="400" font-size="73" transform="matrix(1 0 0 1 1317.05 2185)">Reasoning</text><rect x="1722" y="1611" width="625" height="128" fill="#5B9BD5" fill-opacity="0.6"/><text fill="#002060" font-family="Comic Sans MS,Comic Sans MS_MSFontService,sans-serif" font-weight="400" font-size="73" transform="matrix(1 0 0 1 1809.32 1701)">Verbalisation</text><rect x="2387" y="1828" width="610" height="128" fill="#5B9BD5" fill-opacity="0.6"/><text fill="#002060" font-family="Comic Sans MS,Comic Sans MS_MSFontService,sans-serif" font-weight="400" font-size="73" transform="matrix(1 0 0 1 2455.41 1918)">Normalisation</text><rect x="1365" y="2305" width="1032" height="127" fill="#5B9BD5" fill-opacity="0.6"/><text fill="#002060" font-family="Comic Sans MS,Comic Sans MS_MSFontService,sans-serif" font-weight="400" font-size="73" transform="matrix(1 0 0 1 1461.22 2394)">Other Ontology Modules</text><path d="M0-4.58333 99.4706-4.58333 99.4706 77.7366 94.8873 73.1532 166.858 73.1532 166.858 82.3199 90.3039 82.3199 90.3039 0 94.8873 4.58333 0 4.58333ZM162.275 63.9866 189.775 77.7366 162.275 91.4866Z" fill="#4472C4" transform="matrix(-1.83697e-16 -1 -1 1.83697e-16 2112.24 1929.27)"/><path d="M0-4.58333 74.9301-4.58333 74.9301 107.329 70.3468 102.746 117.777 102.746 117.777 111.912 65.7634 111.912 65.7634 0 70.3468 4.58333 0 4.58333ZM113.194 93.579 140.694 107.329 113.194 121.079Z" fill="#4472C4" transform="matrix(-1 1.22465e-16 1.22465e-16 1 1863.19 2052.5)"/><path d="M0-4.58333 334.514-4.58333 334.514 73.1532 325.347 73.1532 325.347 0 329.93 4.58333 0 4.58333ZM343.68 68.5699 329.93 96.0699 316.18 68.5699Z" fill="#4472C4" transform="matrix(1 0 0 -1 2362.5 2052.57)"/><path d="M2117.13 2175.5 2117.13 2245.09 1881.5 2245.09 1886.08 2240.51 1886.08 2282.59 1876.92 2282.59 1876.92 2235.92 2112.55 2235.92 2107.96 2240.51 2107.96 2175.5ZM1895.25 2278.01 1881.5 2305.51 1867.75 2278.01Z" fill="#4472C4"/><path d="M1022.5 1988.5 1081.5 1988.5 1140.5 2052 1081.5 2115.5 1022.5 2115.5 1081.5 2052Z" stroke="#2F528F" stroke-width="4.58333" stroke-miterlimit="8" fill="#5B9BD5" fill-rule="evenodd"/><path d="M907.5 1988.5 966.5 1988.5 1025.5 2052 966.5 2115.5 907.5 2115.5 966.5 2052Z" stroke="#2F528F" stroke-width="4.58333" stroke-miterlimit="8" fill="#5B9BD5" fill-rule="evenodd"/><path d="M287 1902.82C287 1913.77 406.988 1922.65 555 1922.65 703.012 1922.65 823 1913.77 823 1902.82L823 2274.18C823 2285.12 703.012 2294 555 2294 406.988 2294 287 2285.12 287 2274.18Z" fill="#4472C4" fill-rule="evenodd" fill-opacity="0.501961"/><path d="M287 1902.82C287 1891.88 406.988 1883 555 1883 703.012 1883 823 1891.88 823 1902.82 823 1913.77 703.012 1922.65 555 1922.65 406.988 1922.65 287 1913.77 287 1902.82Z" fill="#8FAADC" fill-rule="evenodd" fill-opacity="0.501961"/><text fill="#002060" font-family="Comic Sans MS,Comic Sans MS_MSFontService,sans-serif" font-weight="400" font-size="64" transform="matrix(1 0 0 1 464.877 2006)">owlapi</text><text fill="#002060" font-family="Comic Sans MS,Comic Sans MS_MSFontService,sans-serif" font-weight="400" font-size="64" transform="matrix(1 0 0 1 473.769 2083)">jpype</text><text fill="#002060" font-family="Comic Sans MS,Comic Sans MS_MSFontService,sans-serif" font-weight="400" font-size="64" transform="matrix(1 0 0 1 482.363 2160)">mowl</text><text fill="#002060" font-family="Comic Sans MS,Comic Sans MS_MSFontService,sans-serif" font-weight="400" font-size="64" transform="matrix(1 0 0 1 533.352 2237)">…</text><path d="M1026.5 537.5 1085.5 537.5 1144.5 601 1085.5 664.5 1026.5 664.5 1085.5 601Z" stroke="#2F528F" stroke-width="4.58333" stroke-miterlimit="8" fill="#5B9BD5" fill-rule="evenodd"/><path d="M911.5 537.5 970.5 537.5 1029.5 601 970.5 664.5 911.5 664.5 970.5 601Z" stroke="#2F528F" stroke-width="4.58333" stroke-miterlimit="8" fill="#5B9BD5" fill-rule="evenodd"/><path d="M283 416.823C283 427.771 403.211 436.645 551.5 436.645 699.788 436.645 820 427.771 820 416.823L820 788.177C820 799.125 699.788 808 551.5 808 403.211 808 283 799.125 283 788.177Z" fill="#4472C4" fill-rule="evenodd" fill-opacity="0.501961"/><path d="M283 416.823C283 405.875 403.211 397 551.5 397 699.788 397 820 405.875 820 416.823 820 427.771 699.788 436.645 551.5 436.645 403.211 436.645 283 427.771 283 416.823Z" fill="#8FAADC" fill-rule="evenodd" fill-opacity="0.501961"/><g clip-path="url(#clip3)" filter="url(#fx0)" transform="translate(390 464)"><g><path d="M17.625 1.09375C15.5417 1.09375 13.25 0.760417 10.75 0.09375L10.6875 15.0312C10.6875 15.9479 10.401 16.6979 9.82812 17.2812 9.25521 17.8646 8.52083 18.1562 7.625 18.1562 6.72917 18.1562 5.99479 17.8646 5.42187 17.2812 4.84896 16.6979 4.5625 15.9479 4.5625 15.0312L4.65625 2.53125 4.65625-9.9375C4.59375-14.5 4.4375-18.6562 4.1875-22.4062L3.71875-28.75C3.71875-30.2292 3.98958-31.4792 4.53125-32.5 5.15625-33.7292 6.0625-34.3437 7.25-34.3437 8.0625-34.3437 8.74479-34.0573 9.29687-33.4844 9.84896-32.9115 10.125-32.2083 10.125-31.375 10.125-31.1875 10.0937-30.8437 10.0312-30.3437 9.92708-29.6979 9.85417-29.1042 9.8125-28.5625 11.6042-29.7917 13.3333-30.7135 15-31.3281 16.6667-31.9427 18.2604-32.25 19.7812-32.25 24.0521-32.25 27.1771-30.3542 29.1562-26.5625 30.7187-23.5625 31.5-19.5937 31.5-14.6562 31.5-10.1562 30.2917-6.44792 27.875-3.53125 25.3125-0.447917 21.8958 1.09375 17.625 1.09375ZM19.7812-26C17.8646-26 16.1354-25.5729 14.5937-24.7187 13.4896-24.1146 12.0937-23.0104 10.4062-21.4062 10.6771-16.6771 10.8125-11.7083 10.8125-6.5 13.0833-5.625 15.3542-5.1875 17.625-5.1875 20.2292-5.1875 22.2187-6.15625 23.5937-8.09375 24.7812-9.78125 25.375-11.9687 25.375-14.6562 25.375-18.4479 24.9115-21.2865 23.9844-23.1719 23.0573-25.0573 21.6562-26 19.7812-26ZM65.9687-27.875 55.1562-4.5C52.4896 1.1875 50.4479 5.94792 49.0312 9.78125L46.9687 15.8437C46.4271 17.3437 45.4896 18.0937 44.1562 18.0937 43.2812 18.0937 42.526 17.8073 41.8906 17.2344 41.2552 16.6615 40.9375 15.9479 40.9375 15.0937 40.9375 13.0104 43.1875 6.97917 47.6875-3L36.5-24.5312 35.0937-26.8125C34.5312-27.7708 34.25-28.5729 34.25-29.2187 34.25-30.0729 34.5781-30.8229 35.2344-31.4687 35.8906-32.1146 36.625-32.4375 37.4375-32.4375 38.3958-32.4375 39.1354-32.0729 39.6562-31.3437 43.1979-26.4271 47-19.4271 51.0625-10.3437L55.6875-21.125C57.3542-24.8542 58.9583-28.0625 60.5-30.75 61.1667-31.9167 62.0417-32.5 63.125-32.5 63.9792-32.5 64.7344-32.1979 65.3906-31.5937 66.0469-30.9896 66.375-30.2708 66.375-29.4375 66.375-28.9792 66.2396-28.4583 65.9687-27.875ZM92.8542-26.625C92.4167-26.625 91.901-26.6458 91.3073-26.6875 90.7135-26.7292 90.1979-26.75 89.7604-26.75 89.2812-26.75 87.8646-26.5937 85.5104-26.2812L86.1042-7.8125 86.1354-6.4375 86.1667-4.84375C86.25-0.28125 85.1562 2 82.8854 2 82.0521 2 81.3281 1.72917 80.7135 1.1875 80.0989 0.645833 79.7917-0.03125 79.7917-0.84375 79.7917-1.63542 79.8229-2.82292 79.8854-4.40625 79.9479-5.98958 79.9792-7.17708 79.9792-7.96875L79.3542-26.2187C77.8333-26.2812 75.5208-26.4583 72.4167-26.75 70.5625-27 69.6354-28.0312 69.6354-29.8437 69.6354-30.7604 69.9167-31.5208 70.4792-32.125 71.0417-32.7292 71.7604-33.0312 72.6354-33.0312L79.1979-32.5C79.1979-33.5625 79.151-34.9844 79.0573-36.7656 78.9635-38.5469 78.9167-39.8333 78.9167-40.625 78.9167-41.5 79.2187-42.224 79.8229-42.7969 80.4271-43.3698 81.1667-43.6562 82.0417-43.6562 83.9167-43.6562 85.0104-42.125 85.3229-39.0625 85.3854-38.2917 85.4167-37.3646 85.4167-36.2812L85.3542-34.4687 85.3229-32.5312C87.9062-32.8646 89.3854-33.0312 89.7604-33.0312 91.9271-33.0312 93.3437-32.9271 94.0104-32.7187 95.2812-32.3021 95.9167-31.3229 95.9167-29.7812 95.9167-28.8646 95.6302-28.1094 95.0573-27.5156 94.4844-26.9219 93.75-26.625 92.8542-26.625ZM114.031 1.84375C110.531 1.84375 107.521 0.552083 105-2.03125 102.187-4.90625 100.708-8.77083 100.562-13.625 100.437-18.3333 101.625-22.4792 104.125-26.0625 107.042-30.2917 111.104-32.4062 116.312-32.4062 120.479-32.4062 123.635-30.5 125.781-26.6875 127.49-23.6042 128.312-19.8958 128.25-15.5625 128.187-10.9375 126.979-6.98958 124.625-3.71875 121.958-0.0104167 118.427 1.84375 114.031 1.84375ZM115.906-26.0625C112.844-26.0833 110.458-24.625 108.75-21.6875 107.396-19.3333 106.719-16.6458 106.719-13.625 106.719-10.6042 107.542-8.25 109.187-6.5625 110.562-5.16667 112.177-4.46875 114.031-4.46875 116.198-4.46875 118.062-5.26042 119.625-6.84375 121.396-8.59375 122.333-10.9583 122.437-13.9375 122.729-22 120.552-26.0417 115.906-26.0625ZM160.427-23.0937C160.281-20.4896 159.24-19.1875 157.302-19.1875 155.51-19.1875 154.615-20.2187 154.615-22.2812 154.615-22.6771 154.583-23.4062 154.521-24.4687L154.427-27.0937C151.135-26.6979 148.5-25.7708 146.521-24.3125 144.667-22.9583 143.125-20.9167 141.896-18.1875L141.958-1.0625C141.958 1.04167 140.927 2.09375 138.865 2.09375 137.031 2.09375 136.115 1.04167 136.115-1.0625L136.115-23C136.115-23.6875 136.141-24.7187 136.193-26.0937 136.245-27.4687 136.271-28.5 136.271-29.1875 136.271-31.2917 137.187-32.3437 139.021-32.3437 141.062-32.3437 142.094-30.6146 142.115-27.1562 146.115-31.0104 150.552-32.9375 155.427-32.9375 157.115-32.9375 158.375-32.3021 159.208-31.0312 160.042-29.7604 160.458-27.8437 160.458-25.2812 160.458-24.1979 160.448-23.4687 160.427-23.0937ZM181.177 1.96875C176.906 1.96875 173.344 0.677083 170.49-1.90625 167.49-4.61458 165.99-8.1875 165.99-12.625 165.99-16.8542 167.396-21.2187 170.208-25.7187 173.333-30.7187 176.854-33.2187 180.771-33.2187 182.812-33.2187 185.094-32.7396 187.615-31.7812 190.802-30.5521 192.396-29.0521 192.396-27.2812 192.396-26.4896 192.135-25.7865 191.615-25.1719 191.094-24.5573 190.448-24.25 189.677-24.25 189.073-24.25 188.547-24.4323 188.099-24.7969 187.651-25.1615 187.219-25.5208 186.802-25.875 185.573-26.8542 183.562-27.3437 180.771-27.3437 178.646-27.3437 176.542-25.4479 174.458-21.6562 172.562-18.1771 171.615-15.1667 171.615-12.625 171.615-9.875 172.552-7.70833 174.427-6.125 176.177-4.64583 178.427-3.90625 181.177-3.90625 182.427-3.90625 183.76-4.23958 185.177-4.90625L188.802-6.84375C189.427-7.17708 189.875-7.34375 190.146-7.34375 190.917-7.34375 191.583-7.03646 192.146-6.42187 192.708-5.80729 192.99-5.10417 192.99-4.3125 192.99-2.79167 191.385-1.32292 188.177 0.09375 185.365 1.34375 183.031 1.96875 181.177 1.96875ZM226.437 1.9375C224.958 1.9375 223.99 1.14583 223.531-0.4375 223.052-2.14583 222.615-4.57292 222.219-7.71875 221.844-10.7396 221.656-13.2187 221.656-15.1562 221.656-15.6979 221.682-16.5208 221.734-17.625 221.786-18.7292 221.812-19.5521 221.812-20.0937 221.812-24.0104 220.833-25.9687 218.875-25.9687 216.229-25.9687 213.865-24.7708 211.781-22.375 210.719-21.1458 209.26-18.8021 207.406-15.3437 207.406-7.40625 207.073-2.70833 206.406-1.25 205.823 0.0416666 204.917 0.6875 203.687 0.6875 202.833 0.6875 202.083 0.395833 201.437-0.1875 200.792-0.770833 200.469-1.47917 200.469-2.3125 200.469-2.60417 200.562-3.0625 200.75-3.6875 200.917-4.20833 201.031-5.72917 201.094-8.25L201.187-12.875 201.281-35.8437C201.427-38.4271 201.5-40.1667 201.5-41.0625 201.5-42.125 201.401-43.1302 201.203-44.0781 201.005-45.026 200.906-46.0104 200.906-47.0312 200.906-47.9062 201.208-48.6302 201.812-49.2031 202.417-49.776 203.156-50.0625 204.031-50.0625 205.74-50.0625 206.74-49.1458 207.031-47.3125 207.365-45.2917 207.531-43.4687 207.531-41.8437 207.531-39.6562 207.458-37.375 207.312-35 207.187-32.7292 207.135-30.4479 207.156-28.1562L207.187-25.4062C208.896-27.6979 210.724-29.4115 212.672-30.5469 214.62-31.6823 216.687-32.25 218.875-32.25 222.333-32.25 224.708-31.125 226-28.875 226.917-27.2917 227.437-24.625 227.562-20.875L227.812-14.9062 228.437-8.40625C228.729-5.96875 229.083-3.82292 229.5-1.96875 229.583-1.61458 229.625-1.3125 229.625-1.0625 229.625-0.208333 229.312 0.505208 228.687 1.07812 228.062 1.65104 227.312 1.9375 226.437 1.9375Z" fill="#002060" transform="matrix(1 0 0 1 44.9643 86)"/></g></g><text fill="#002060" font-family="Comic Sans MS,Comic Sans MS_MSFontService,sans-serif" font-weight="400" font-size="64" transform="matrix(1 0 0 1 434.964 547)">pytorch</text><g clip-path="url(#clip4)" filter="url(#fx1)" transform="translate(305 541)"><g><path d="M25.25-26.625C24.8125-26.625 24.2969-26.6458 23.7031-26.6875 23.1094-26.7292 22.5937-26.75 22.1562-26.75 21.6771-26.75 20.2604-26.5937 17.9062-26.2812L18.5-7.8125 18.5312-6.4375 18.5625-4.84375C18.6458-0.28125 17.5521 2 15.2812 2 14.4479 2 13.724 1.72917 13.1094 1.1875 12.4948 0.645833 12.1875-0.03125 12.1875-0.84375 12.1875-1.63542 12.2187-2.82292 12.2812-4.40625 12.3437-5.98958 12.375-7.17708 12.375-7.96875L11.75-26.2187C10.2292-26.2812 7.91667-26.4583 4.8125-26.75 2.95833-27 2.03125-28.0312 2.03125-29.8437 2.03125-30.7604 2.3125-31.5208 2.875-32.125 3.4375-32.7292 4.15625-33.0312 5.03125-33.0312L11.5937-32.5C11.5937-33.5625 11.5469-34.9844 11.4531-36.7656 11.3594-38.5469 11.3125-39.8333 11.3125-40.625 11.3125-41.5 11.6146-42.224 12.2187-42.7969 12.8229-43.3698 13.5625-43.6562 14.4375-43.6562 16.3125-43.6562 17.4062-42.125 17.7187-39.0625 17.7812-38.2917 17.8125-37.3646 17.8125-36.2812L17.75-34.4687 17.7187-32.5312C20.3021-32.8646 21.7812-33.0312 22.1562-33.0312 24.3229-33.0312 25.7396-32.9271 26.4062-32.7187 27.6771-32.3021 28.3125-31.3229 28.3125-29.7812 28.3125-28.8646 28.026-28.1094 27.4531-27.5156 26.8802-26.9219 26.1458-26.625 25.25-26.625ZM59.0208-23.0937C58.875-20.4896 57.8333-19.1875 55.8958-19.1875 54.1042-19.1875 53.2083-20.2187 53.2083-22.2812 53.2083-22.6771 53.1771-23.4062 53.1146-24.4687L53.0208-27.0937C49.7292-26.6979 47.0937-25.7708 45.1146-24.3125 43.2604-22.9583 41.7187-20.9167 40.4896-18.1875L40.5521-1.0625C40.5521 1.04167 39.5208 2.09375 37.4583 2.09375 35.625 2.09375 34.7083 1.04167 34.7083-1.0625L34.7083-23C34.7083-23.6875 34.7344-24.7187 34.7865-26.0937 34.8385-27.4687 34.8646-28.5 34.8646-29.1875 34.8646-31.2917 35.7812-32.3437 37.6146-32.3437 39.6562-32.3437 40.6875-30.6146 40.7083-27.1562 44.7083-31.0104 49.1458-32.9375 54.0208-32.9375 55.7083-32.9375 56.9687-32.3021 57.8021-31.0312 58.6354-29.7604 59.0521-27.8437 59.0521-25.2812 59.0521-24.1979 59.0417-23.4687 59.0208-23.0937ZM90.0521 2.0625C89.6562 2.0625 88.9375 1.60417 87.8958 0.6875 86.9583-0.166667 86.2604-0.927083 85.8021-1.59375 83.8021-0.510417 82.0417 0.307292 80.5208 0.859375 79 1.41146 77.7292 1.6875 76.7083 1.6875 71.8333 1.6875 68.2812 0.3125 66.0521-2.4375 63.9479-5.02083 62.8958-8.97917 62.8958-14.3125 62.8958-19.3542 64.6302-23.6667 68.099-27.25 71.5677-30.8333 75.7083-32.625 80.5208-32.625 82.3333-32.625 84.3646-32.1562 86.6146-31.2187 89.4479-30.0521 90.8646-28.6458 90.8646-27 90.8646-26.4375 90.6562-25.9375 90.2396-25.5 90.0312-24.7083 89.8698-23.4062 89.7552-21.5937 89.6406-19.7812 89.5729-17.4583 89.5521-14.625 89.5312-12.0417 89.7083-10 90.0833-8.5 90.2917-7.58333 90.9479-5.75 92.0521-3 92.1979-2.625 92.4375-2.07292 92.7708-1.34375L92.9583-0.8125C92.9583 0.0208333 92.6667 0.708333 92.0833 1.25 91.5 1.79167 90.8229 2.0625 90.0521 2.0625ZM83.5521-19.6562C83.5521-20.5521 83.6094-21.526 83.724-22.5781 83.8385-23.6302 84.0104-24.75 84.2396-25.9375 83.4687-26.3333 82.8073-26.625 82.2552-26.8125 81.7031-27 81.2604-27.0937 80.9271-27.0937 77.6979-27.0937 74.9115-25.776 72.5677-23.1406 70.224-20.5052 69.0521-17.4687 69.0521-14.0312 69.0521-10.6146 69.6562-8.05208 70.8646-6.34375 72.0729-4.63542 73.8854-3.78125 76.3021-3.78125 78.3021-3.78125 80-4.14583 81.3958-4.875 82.1458-5.27083 83.1979-6.0625 84.5521-7.25 83.8854-12.7708 83.5521-16.9062 83.5521-19.6562ZM122.271 2.21875C120.479 2.21875 119.469 1.23958 119.24-0.71875L118.365-7.5625C118.073-10 117.927-12.2812 117.927-14.4062 117.927-14.9896 117.964-15.9792 118.036-17.375 118.109-18.7708 118.146-19.7604 118.146-20.3437 118.146-24.8437 117.312-27.0937 115.646-27.0937 113.312-27.0937 111.083-25.7083 108.958-22.9375 107.042-20.4167 105.542-17.2292 104.458-13.375 104.417-12.5625 104.323-11.5417 104.177-10.3125 104.052-9.27083 103.99-8.26042 103.99-7.28125 103.99-6.65625 104.052-5.71875 104.177-4.46875 104.302-3.21875 104.365-2.28125 104.365-1.65625 104.365-0.71875 104.078 0.0416667 103.505 0.625 102.932 1.20833 102.198 1.5 101.302 1.5 100.385 1.5 99.6458 1.20833 99.0833 0.625 98.5208 0.0416667 98.2396-0.71875 98.2396-1.65625 98.2396-2.28125 98.1719-3.21875 98.0365-4.46875 97.901-5.71875 97.8333-6.65625 97.8333-7.28125 97.8333-9.42708 97.9844-12.401 98.2865-16.2031 98.5885-20.0052 98.7396-22.9792 98.7396-25.125 98.7396-25.7917 98.7031-26.7812 98.6302-28.0937 98.5573-29.4062 98.5208-30.3958 98.5208-31.0625 98.5208-31.9583 98.8177-32.6927 99.4115-33.2656 100.005-33.8385 100.74-34.125 101.615-34.125 103.531-34.125 104.583-32.7708 104.771-30.0625L104.865-26.4062C108.365-31.0729 111.958-33.4062 115.646-33.4062 118.979-33.4062 121.302-31.9375 122.615-29 123.51-27.0417 124-24.1458 124.083-20.3125L124.083-17.1562 124.052-14.25C124.052-12.5208 124.276-10.2865 124.724-7.54687 125.172-4.80729 125.396-2.58333 125.396-0.875 125.396 0.0416666 125.099 0.786458 124.505 1.35937 123.911 1.93229 123.167 2.21875 122.271 2.21875ZM153.198-24.0625C152.052-24.0625 151.25-24.4479 150.792-25.2187 150.479-25.7604 150.208-26.8854 149.979-28.5937 148.417-28.1979 146.01-27.4687 142.76-26.4062 139.406-25.0729 137.719-23.4271 137.698-21.4687 138.323-21.2396 138.937-21.0729 139.542-20.9687 144.333-20.1146 147.896-18.9375 150.229-17.4375 153.625-15.25 155.323-12.0833 155.323-7.9375 155.323-4.54167 153.854-1.97917 150.917-0.25 148.479 1.16667 145.396 1.875 141.667 1.875 138.937 1.875 136.333 1.41667 133.854 0.5 130.646-0.666667 129.042-2.29167 129.042-4.375 129.042-5.20833 129.37-5.9375 130.026-6.5625 130.682-7.1875 131.427-7.5 132.26-7.5 132.906-7.5 133.74-7 134.76-6 135.26-5.52083 136.385-5.125 138.135-4.8125 139.531-4.5625 140.708-4.4375 141.667-4.4375 143.417-4.4375 144.958-4.64583 146.292-5.0625 148.229-5.66667 149.198-6.625 149.198-7.9375 149.198-10.7708 147.219-12.6875 143.26-13.6875L140.01-14.4062C137.24-15.0104 135.271-15.7187 134.104-16.5312 132.417-17.6979 131.573-19.4583 131.573-21.8125 131.573-26.1667 133.625-29.2708 137.729-31.125 138.979-31.6875 140.979-32.3594 143.729-33.1406 146.479-33.9219 148.448-34.5833 149.635-35.125 150.49-35.5 151.417-35.6875 152.417-35.6875 153.312-35.6875 154.047-35.3958 154.62-34.8125 155.193-34.2292 155.479-33.4687 155.479-32.5312 155.479-31.9271 155.609-31.0417 155.87-29.875 156.13-28.7083 156.26-27.8229 156.26-27.2187 156.26-26.2812 155.974-25.5208 155.401-24.9375 154.828-24.3542 154.094-24.0625 153.198-24.0625ZM184.615-43.9375C179.573-43.9375 176.75-40.4375 176.146-33.4375L176.052-31.5C179.594-31.75 181.885-31.875 182.927-31.875 186.24-31.875 187.896-30.8333 187.896-28.75 187.896-27.2292 187.083-26.3229 185.458-26.0312 184.75-25.9062 183.922-25.8594 182.974-25.8906 182.026-25.9219 179.625-25.7812 175.771-25.4687L175.521-18.3437C175.521-17.0521 175.562-15.1146 175.646-12.5312 175.729-9.94792 175.771-8.02083 175.771-6.75 175.771-2.79167 175.542 0.291667 175.083 2.5 174.729 4.16667 173.76 5 172.177 5 171.323 5 170.594 4.72396 169.99 4.17187 169.385 3.61979 169.083 2.92708 169.083 2.09375 169.083 1.92708 169.104 1.71875 169.146 1.46875 169.583-1.23958 169.802-4.1875 169.802-7.375L169.708-15.9062 169.708-24.9687C167.104-24.7604 165.458-24.6562 164.771-24.6562 162.667-24.6562 161.615-25.6667 161.615-27.6875 161.615-29.75 163.437-30.8333 167.083-30.9375L170.083-31.0312C170.146-32.1979 170.302-33.7812 170.552-35.7812 171.094-40.4062 172.26-43.8125 174.052-46 176.219-48.6458 179.604-49.9687 184.208-49.9687 187.188-49.9687 188.677-48.9583 188.677-46.9375 188.677-44.9375 187.323-43.9375 184.615-43.9375ZM207.99 1.84375C204.49 1.84375 201.479 0.552083 198.958-2.03125 196.146-4.90625 194.667-8.77083 194.521-13.625 194.396-18.3333 195.583-22.4792 198.083-26.0625 201-30.2917 205.062-32.4062 210.271-32.4062 214.438-32.4062 217.594-30.5 219.74-26.6875 221.448-23.6042 222.271-19.8958 222.208-15.5625 222.146-10.9375 220.937-6.98958 218.583-3.71875 215.917-0.0104167 212.385 1.84375 207.99 1.84375ZM209.865-26.0625C206.802-26.0833 204.417-24.625 202.708-21.6875 201.354-19.3333 200.677-16.6458 200.677-13.625 200.677-10.6042 201.5-8.25 203.146-6.5625 204.521-5.16667 206.135-4.46875 207.99-4.46875 210.156-4.46875 212.021-5.26042 213.583-6.84375 215.354-8.59375 216.292-10.9583 216.396-13.9375 216.687-22 214.51-26.0417 209.865-26.0625ZM254.385-23.0937C254.24-20.4896 253.198-19.1875 251.26-19.1875 249.469-19.1875 248.573-20.2187 248.573-22.2812 248.573-22.6771 248.542-23.4062 248.479-24.4687L248.385-27.0937C245.094-26.6979 242.458-25.7708 240.479-24.3125 238.625-22.9583 237.083-20.9167 235.854-18.1875L235.917-1.0625C235.917 1.04167 234.885 2.09375 232.823 2.09375 230.99 2.09375 230.073 1.04167 230.073-1.0625L230.073-23C230.073-23.6875 230.099-24.7187 230.151-26.0937 230.203-27.4687 230.229-28.5 230.229-29.1875 230.229-31.2917 231.146-32.3437 232.979-32.3437 235.021-32.3437 236.052-30.6146 236.073-27.1562 240.073-31.0104 244.51-32.9375 249.385-32.9375 251.073-32.9375 252.333-32.3021 253.167-31.0312 254-29.7604 254.417-27.8437 254.417-25.2812 254.417-24.1979 254.406-23.4687 254.385-23.0937ZM300.698 2.59375C298.99 2.59375 297.99 1.6875 297.698-0.125 297.323-2.41667 296.948-5.64583 296.573-9.8125L295.51-19.5C295.302-20.9375 294.948-22.3437 294.448-23.7187 293.74-25.5937 292.969-26.5312 292.135-26.5312 291.365-26.5312 289.927-25.875 287.823-24.5625 285.823-23.3542 284.51-22.3854 283.885-21.6562 283.865-19.6979 283.917-17.7396 284.042-15.7812L284.979-7.4375C285.375-4.14583 285.573-1.42708 285.573 0.71875 285.573 1.63542 285.286 2.39062 284.714 2.98437 284.141 3.57812 283.406 3.875 282.51 3.875 281.615 3.875 280.88 3.57812 280.307 2.98437 279.734 2.39062 279.448 1.63542 279.448 0.71875 279.448-1.80208 279.193-5.52604 278.682-10.4531 278.172-15.3802 277.917-19.1042 277.917-21.625 277.917-23.8333 277.604-25.5521 276.979-26.7812 275.521-26.1146 274.042-25.0312 272.542-23.5312L268.854-19.4062C268.521-18.9062 267.99-18.25 267.26-17.4375 267.26-16.1875 267.146-14.3437 266.917-11.9062 266.687-9.46875 266.573-7.66667 266.573-6.5 266.573-5.875 266.672-5 266.87-3.875 267.068-2.75 267.167-1.9375 267.167-1.4375 267.167-0.583333 266.849 0.135417 266.214 0.71875 265.578 1.30208 264.833 1.59375 263.979 1.59375 261.625 1.59375 260.448-1.08333 260.448-6.4375 260.448-7.6875 260.562-9.55208 260.792-12.0312 261.021-14.5104 261.135-16.375 261.135-17.625 261.135-18.7292 261.036-20.3854 260.839-22.5937 260.641-24.8021 260.542-26.4687 260.542-27.5937 260.542-32.3229 261.604-34.6875 263.729-34.6875 264.542-34.6875 265.286-34.3333 265.964-33.625 266.641-32.9167 266.979-32.1458 266.979-31.3125 266.979-30.9167 266.927-30.3021 266.823-29.4687 266.719-28.6354 266.667-28 266.667-27.5625L266.729-24.2812C267.812-26.5104 269.406-28.526 271.51-30.3281 273.615-32.1302 275.406-33.0312 276.885-33.0312 280.156-33.0312 282.406-31.4062 283.635-28.1562 284.781-29.6771 286.146-30.8177 287.729-31.5781 289.312-32.3385 291.125-32.7187 293.167-32.7187 296.646-32.7187 299.021-30.8437 300.292-27.0937 300.542-26.3437 300.969-23.4167 301.573-18.3125 302.156-14.7292 302.906-8.76042 303.823-0.40625 303.885 0.427083 303.604 1.13542 302.979 1.71875 302.354 2.30208 301.594 2.59375 300.698 2.59375ZM325.448 1.4375C320.74 1.4375 316.927 0.260417 314.01-2.09375 310.823-4.69792 309.229-8.34375 309.229-13.0312 309.229-18.4479 310.542-22.9896 313.167-26.6562 316.021-30.6562 319.833-32.6562 324.604-32.6562 328.062-32.6562 330.885-32.0729 333.073-30.9062 335.76-29.4687 337.104-27.2604 337.104-24.2812 337.104-22.1979 335.927-20.3021 333.573-18.5937 332.531-17.8437 330.323-16.6771 326.948-15.0937L315.01-9.4375C316.177-7.70833 317.63-6.40625 319.37-5.53125 321.109-4.65625 323.135-4.21875 325.448-4.21875 326.885-4.21875 328.573-4.48958 330.51-5.03125 332.969-5.71875 334.552-6.61979 335.26-7.73437 335.969-8.84896 336.729-9.40625 337.542-9.40625 338.271-9.40625 338.922-9.13021 339.495-8.57812 340.068-8.02604 340.354-7.38542 340.354-6.65625 340.354-4.34375 338.49-2.35417 334.76-0.6875 331.573 0.729167 328.469 1.4375 325.448 1.4375ZM324.604-27.0312C322.062-27.0312 319.948-26.0469 318.26-24.0781 316.573-22.1094 315.312-19.1458 314.479-15.1875L324.073-19.75C327.844-21.5833 330.531-23.1771 332.135-24.5312 330.344-26.1979 327.833-27.0312 324.604-27.0312ZM370.115-23.0937C369.969-20.4896 368.927-19.1875 366.99-19.1875 365.198-19.1875 364.302-20.2187 364.302-22.2812 364.302-22.6771 364.271-23.4062 364.208-24.4687L364.115-27.0937C360.823-26.6979 358.187-25.7708 356.208-24.3125 354.354-22.9583 352.812-20.9167 351.583-18.1875L351.646-1.0625C351.646 1.04167 350.615 2.09375 348.552 2.09375 346.719 2.09375 345.802 1.04167 345.802-1.0625L345.802-23C345.802-23.6875 345.828-24.7187 345.88-26.0937 345.932-27.4687 345.958-28.5 345.958-29.1875 345.958-31.2917 346.875-32.3437 348.708-32.3437 350.75-32.3437 351.781-30.6146 351.802-27.1562 355.802-31.0104 360.24-32.9375 365.115-32.9375 366.802-32.9375 368.062-32.3021 368.896-31.0312 369.729-29.7604 370.146-27.8437 370.146-25.2812 370.146-24.1979 370.135-23.4687 370.115-23.0937ZM397.833-24.0625C396.687-24.0625 395.885-24.4479 395.427-25.2187 395.115-25.7604 394.844-26.8854 394.615-28.5937 393.052-28.1979 390.646-27.4687 387.396-26.4062 384.042-25.0729 382.354-23.4271 382.333-21.4687 382.958-21.2396 383.573-21.0729 384.177-20.9687 388.969-20.1146 392.531-18.9375 394.865-17.4375 398.26-15.25 399.958-12.0833 399.958-7.9375 399.958-4.54167 398.49-1.97917 395.552-0.25 393.115 1.16667 390.031 1.875 386.302 1.875 383.573 1.875 380.969 1.41667 378.49 0.5 375.281-0.666667 373.677-2.29167 373.677-4.375 373.677-5.20833 374.005-5.9375 374.661-6.5625 375.318-7.1875 376.062-7.5 376.896-7.5 377.542-7.5 378.375-7 379.396-6 379.896-5.52083 381.021-5.125 382.771-4.8125 384.167-4.5625 385.344-4.4375 386.302-4.4375 388.052-4.4375 389.594-4.64583 390.927-5.0625 392.865-5.66667 393.833-6.625 393.833-7.9375 393.833-10.7708 391.854-12.6875 387.896-13.6875L384.646-14.4062C381.875-15.0104 379.906-15.7187 378.74-16.5312 377.052-17.6979 376.208-19.4583 376.208-21.8125 376.208-26.1667 378.26-29.2708 382.365-31.125 383.615-31.6875 385.615-32.3594 388.365-33.1406 391.115-33.9219 393.083-34.5833 394.271-35.125 395.125-35.5 396.052-35.6875 397.052-35.6875 397.948-35.6875 398.682-35.3958 399.255-34.8125 399.828-34.2292 400.115-33.4687 400.115-32.5312 400.115-31.9271 400.245-31.0417 400.505-29.875 400.766-28.7083 400.896-27.8229 400.896-27.2187 400.896-26.2812 400.609-25.5208 400.036-24.9375 399.464-24.3542 398.729-24.0625 397.833-24.0625Z" fill="#002060" transform="matrix(1 0 0 1 44.5997 86)"/></g></g><text fill="#002060" font-family="Comic Sans MS,Comic Sans MS_MSFontService,sans-serif" font-weight="400" font-size="64" transform="matrix(1 0 0 1 349.6 624)">transformers</text><g clip-path="url(#clip5)" filter="url(#fx2)" transform="translate(467 612)"><g><path d="M45.8364 2.39111C44.8367 2.39111 43.9451 2.14795 43.1616 1.66162 42.243 1.09424 41.7837 0.337728 41.7837-0.60791 41.7837-1.01318 41.8918-1.54679 42.1079-2.20874 42.3241-2.87069 42.4456-3.35026 42.4727-3.64746 42.7158-5.56575 44.0127-6.5249 46.3633-6.5249 49.0111-6.5249 50.335-5.49821 50.335-3.44482 50.335 0.445801 48.8354 2.39111 45.8364 2.39111ZM28.207 2.26953C25.5863 2.26953 24.2759 1.26986 24.2759-0.729492L24.2759-3.36377C24.2759-5.36312 25.5863-6.36279 28.207-6.36279 30.8008-6.36279 32.0977-5.36312 32.0977-3.36377L32.0977-0.729492C32.0977 1.26986 30.8008 2.26953 28.207 2.26953ZM11.145 2.71533C8.52425 2.71533 7.21387 1.71566 7.21387-0.283691L7.21387-2.55322C7.21387-4.57959 8.52425-5.59277 11.145-5.59277 13.7658-5.59277 15.0762-4.57959 15.0762-2.55322L15.0762-0.283691C15.0762 1.71566 13.7658 2.71533 11.145 2.71533Z" fill="#002060" transform="matrix(1 0 0 1 56.7664 110)"/></g></g><text fill="#002060" font-family="Comic Sans MS,Comic Sans MS_MSFontService,sans-serif" font-weight="400" font-size="83" transform="matrix(1 0 0 1 523.766 718)">…</text><path d="M1678 326.001C1678 303.357 1696.36 285 1719 285L2136 285C2158.64 285 2177 303.357 2177 326.001L2177 489.999C2177 512.643 2158.64 531 2136 531L1719 531C1696.36 531 1678 512.643 1678 489.999Z" fill="#54A9B2" fill-rule="evenodd" fill-opacity="0.341176"/><text fill="#002060" font-family="Comic Sans MS,Comic Sans MS_MSFontService,sans-serif" font-weight="400" font-size="73" transform="matrix(1 0 0 1 1763.06 434)">BERTMap</text><path d="M1397 534.001C1397 511.357 1415.36 493 1438 493L1855 493C1877.64 493 1896 511.357 1896 534.001L1896 697.999C1896 720.643 1877.64 739 1855 739L1438 739C1415.36 739 1397 720.643 1397 697.999Z" fill="#54A9B2" fill-rule="evenodd" fill-opacity="0.839216"/><text fill="#002060" font-family="Comic Sans MS,Comic Sans MS_MSFontService,sans-serif" font-weight="400" font-size="73" transform="matrix(1 0 0 1 1468.14 642)">BERTSubs</text><path d="M2113 395.168C2113 372.431 2131.43 354 2154.17 354L2570.83 354C2593.57 354 2612 372.431 2612 395.168L2612 559.832C2612 582.568 2593.57 601 2570.83 601L2154.17 601C2131.43 601 2113 582.568 2113 559.832Z" fill="#54A9B2" fill-rule="evenodd" fill-opacity="0.662745"/><text fill="#002060" font-family="Comic Sans MS,Comic Sans MS_MSFontService,sans-serif" font-weight="400" font-size="73" transform="matrix(1 0 0 1 2241.8 503)">Bio</text><text fill="#002060" font-family="Comic Sans MS,Comic Sans MS_MSFontService,sans-serif" font-weight="400" font-size="73" transform="matrix(1 0 0 1 2347.22 503)">-</text><text fill="#002060" font-family="Comic Sans MS,Comic Sans MS_MSFontService,sans-serif" font-weight="400" font-size="73" transform="matrix(1 0 0 1 2377.58 503)">ML</text><path d="M1724 732.001C1724 709.357 1742.36 691 1765 691L2436 691C2458.64 691 2477 709.357 2477 732.001L2477 895.999C2477 918.643 2458.64 937 2436 937L1765 937C1742.36 937 1724 918.643 1724 895.999Z" fill="#54A9B2" fill-rule="evenodd" fill-opacity="0.168627"/><text fill="#002060" font-family="Comic Sans MS,Comic Sans MS_MSFontService,sans-serif" font-weight="400" font-size="73" transform="matrix(1 0 0 1 1857.79 796)">Other Tools &amp; </text><text fill="#002060" font-family="Comic Sans MS,Comic Sans MS_MSFontService,sans-serif" font-weight="400" font-size="73" transform="matrix(1 0 0 1 1926.54 884)">Resources</text><path d="M2439 596.001C2439 573.357 2457.36 555 2480 555L2897 555C2919.64 555 2938 573.357 2938 596.001L2938 759.999C2938 782.644 2919.64 801 2897 801L2480 801C2457.36 801 2439 782.644 2439 759.999Z" fill="#54A9B2" fill-rule="evenodd" fill-opacity="0.435294"/><text fill="#002060" font-family="Comic Sans MS,Comic Sans MS_MSFontService,sans-serif" font-weight="400" font-size="73" transform="matrix(1 0 0 1 2497.31 704)">OntoLAMA</text><text fill="#71C7B0" font-family="Comic Sans MS,Comic Sans MS_MSFontService,sans-serif" font-weight="400" font-size="64" transform="matrix(1 0 0 1 2806.29 231)">Ontology Alignment</text><path d="M2061.5 1364.5 2061.5 1305 2125.5 1245.5 2189.5 1305 2189.5 1364.5 2125.5 1305Z" stroke="#2F528F" stroke-width="4.58333" stroke-miterlimit="8" fill="#5B9BD5" fill-rule="evenodd"/><path d="M2061.5 1479.5 2061.5 1420 2125.5 1360.5 2189.5 1420 2189.5 1479.5 2125.5 1420Z" stroke="#2F528F" stroke-width="4.58333" stroke-miterlimit="8" fill="#5B9BD5" fill-rule="evenodd"/><text fill="#002060" font-family="Comic Sans MS,Comic Sans MS_MSFontService,sans-serif" font-weight="400" font-size="64" transform="matrix(1 0 0 1 182.057 2371)">basic OWL dependencies</text><rect x="2439" y="2129" width="610" height="127" fill="#5B9BD5" fill-opacity="0.6"/><text fill="#002060" font-family="Comic Sans MS,Comic Sans MS_MSFontService,sans-serif" font-weight="400" font-size="73" transform="matrix(1 0 0 1 2568.01 2219)">Projection</text><text fill="#002060" font-family="Comic Sans MS,Comic Sans MS_MSFontService,sans-serif" font-weight="400" font-size="64" transform="matrix(1 0 0 1 282.294 890)">deep learning and </text><text fill="#002060" font-family="Comic Sans MS,Comic Sans MS_MSFontService,sans-serif" font-weight="400" font-size="64" transform="matrix(1 0 0 1 258.506 967)">other dependencies</text><text fill="#5497B0" font-family="Comic Sans MS,Comic Sans MS_MSFontService,sans-serif" font-weight="400" font-size="64" transform="matrix(1 0 0 1 948.071 1024)">Subsumption Inference</text><text fill="#6B7FCA" font-family="Comic Sans MS,Comic Sans MS_MSFontService,sans-serif" font-weight="400" font-size="64" transform="matrix(1 0 0 1 2772.11 1053)">LM Probing</text><path d="M1651.56 739.5 1651.56 847.976 1300.5 847.976 1305.08 843.393 1305.08 924.369 1295.92 924.369 1295.92 838.81 1646.98 838.81 1642.39 843.393 1642.39 739.5ZM1314.25 919.785 1300.5 947.285 1286.75 919.785Z" fill="#5497B0"/><path d="M1923.92 285.638 1923.92 204.917 2747.92 204.917 2747.92 214.083 1928.5 214.083 1933.08 209.5 1933.08 285.638ZM2743.33 195.75 2770.83 209.5 2743.33 223.25Z" fill="#71C7B0"/><path d="M2357.92 355.18 2357.92 204.916 2747.29 204.916 2747.29 214.083 2362.5 214.083 2367.08 209.5 2367.08 355.18ZM2742.71 195.75 2770.21 209.5 2742.71 223.25Z" fill="#71C7B0"/><path d="M2938.5 673.917 3005.57 673.917 3005.57 946.827 2996.41 946.827 2996.41 678.5 3000.99 683.083 2938.5 683.083ZM3014.74 942.243 3000.99 969.743 2987.24 942.243Z" fill="#6B7FCA"/><path d="M1641.92 493.423 1641.92 204.917 2747.37 204.917 2747.37 214.083 1646.5 214.083 1651.08 209.5 1651.08 493.423ZM2742.79 195.75 2770.29 209.5 2742.79 223.25Z" fill="#71C7B0"/><path d="M2693.38 801.5 2693.38 1006.95 1711.42 1006.95 1711.42 997.787 2688.79 997.787 2684.21 1002.37 2684.21 801.5ZM1716 1016.12 1688.5 1002.37 1716 988.62Z" fill="#5497B0"/><text fill="#002060" font-family="Comic Sans MS,Comic Sans MS_MSFontService,sans-serif" font-weight="700" font-size="64" transform="matrix(1 0 0 1 3691.12 681)">Tools &amp; </text><text fill="#002060" font-family="Comic Sans MS,Comic Sans MS_MSFontService,sans-serif" font-weight="700" font-size="64" transform="matrix(1 0 0 1 3653.03 758)">Resources</text><path d="M3495.5 209.5C3538.85 209.5 3574 215.357 3574 222.583L3574 670.917C3574 678.142 3609.15 684 3652.5 684 3609.15 684 3574 689.857 3574 697.083L3574 1145.42C3574 1152.64 3538.85 1158.5 3495.5 1158.5" stroke="#002060" stroke-width="9.16667" stroke-miterlimit="8" fill="none" fill-rule="evenodd"/><path d="M3074.5 1678.5C3118.13 1678.5 3153.5 1684.39 3153.5 1691.67L3153.5 2105.83C3153.5 2113.11 3188.87 2119 3232.5 2119 3188.87 2119 3153.5 2124.89 3153.5 2132.17L3153.5 2546.33C3153.5 2553.61 3118.13 2559.5 3074.5 2559.5" stroke="#002060" stroke-width="9.16667" stroke-miterlimit="8" fill="none" fill-rule="evenodd"/><text fill="#002060" font-family="Comic Sans MS,Comic Sans MS_MSFontService,sans-serif" font-weight="700" font-size="64" transform="matrix(1 0 0 1 3427.07 2137)">Ontology </text><text fill="#002060" font-family="Comic Sans MS,Comic Sans MS_MSFontService,sans-serif" font-weight="700" font-size="64" transform="matrix(1 0 0 1 3403.58 2214)">Processing</text><path d="M2104.77 937.5 2104.77 1096.54 1804.5 1096.54 1809.08 1091.96 1809.08 1223.5 1799.92 1223.5 1799.92 1087.37 2100.18 1087.37 2095.6 1091.96 2095.6 937.5ZM1818.25 1218.91 1804.5 1246.41 1790.75 1218.91Z" fill="#B8C7B0"/><text fill="#B8C7B0" font-family="Comic Sans MS,Comic Sans MS_MSFontService,sans-serif" font-weight="700" font-size="64" transform="matrix(1 0 0 1 1734.27 1324)">. . .</text><rect x="1328" y="1825" width="476" height="127" fill="#5B9BD5" fill-opacity="0.603922"/><text fill="#002060" font-family="Comic Sans MS,Comic Sans MS_MSFontService,sans-serif" font-weight="400" font-size="73" transform="matrix(1 0 0 1 1441.5 1914)">Pruning</text><path d="M1863.29 2056.64 1561.92 2056.64 1561.92 1975.42 1571.08 1975.42 1571.08 2052.06 1566.5 2047.48 1863.29 2047.48ZM1552.75 1980 1566.5 1952.5 1580.25 1980Z" fill="#4472C4"/><path d="M2362.5 2047.92 2749.18 2047.92 2749.18 2107.08 2740.01 2107.08 2740.01 2052.5 2744.59 2057.08 2362.5 2057.08ZM2758.34 2102.5 2744.59 2130 2730.84 2102.5Z" fill="#4472C4"/></g></svg>