<svg xmlns="http://www.w3.org/2000/svg" xmlns:xlink="http://www.w3.org/1999/xlink" version="1.1" width="448pt" height="391pt" viewBox="0 0 448 391">
<defs>
<clipPath id="clip_0">
<path transform="matrix(1,0,0,-1,0,391)" d="M0 .01818085H447.9273V391H0Z"/>
</clipPath>
</defs>
<g clip-path="url(#clip_0)">
<path transform="matrix(1,0,0,-1,0,391)" d="M0 391H447.9273V.01818085H0Z" fill="#ffffff"/>
</g>
<path transform="matrix(.00007874016,0,0,.00007874016,4.527235,63.345399)" stroke-width="19050" stroke-linecap="butt" stroke-linejoin="round" fill="none" stroke="#4472c4" d="M0 0H523702V246611H0Z"/>
<text xml:space="preserve" transform="matrix(.2181818 0 -0 .2181818 6.485016 469.74546)" font-size="72.99999" font-family="CambriaMath"><tspan y="-1792" x="0 62.451494 99.133998 139.83148">&#x1d440;&#x1d452;&#x1d44e;&#x1d461;</tspan></text>
<path transform="matrix(.00007874016,0,0,.00007874016,85.25456,63.345399)" stroke-width="19050" stroke-linecap="butt" stroke-linejoin="round" fill="none" stroke="#4472c4" d="M0 0H2008909V246611H0Z"/>
<text xml:space="preserve" transform="matrix(.2181818 0 -0 .2181818 87.76729 469.74546)" font-size="72.99999" font-family="CambriaMath"><tspan y="-1792" x="0">&#x2203;</tspan></text>
<text xml:space="preserve" transform="matrix(.2181818 0 -0 .2181818 97.14229 469.74546)" font-size="72.99999" font-family="CambriaMath"><tspan y="-1792" x="0 42.3984 78.51879 113.47119 136.9626 177.098 213.21842 247.0028 291.6642 326.6166 365.584">&#x1d451;&#x1d452;&#x1d45f;&#x1d456;&#x1d463;&#x1d452;&#x1d460;&#x1d439;&#x1d45f;&#x1d45c;&#x1d45a;</tspan></text>
<text xml:space="preserve" transform="matrix(.2181818 0 -0 .2181818 190.5423 469.74546)" font-size="72.99999" font-family="CambriaMath"><tspan y="-1792" x="0">.</tspan></text>
<text xml:space="preserve" transform="matrix(.2181818 0 -0 .2181818 196.4573 469.74546)" font-size="72.99999" font-family="CambriaMath"><tspan y="-1792" x="0 43.544496 84.24199 113.47849 142.131 165.0165">&#x1d436;&#x1d44e;&#x1d461;&#x1d461;&#x1d459;&#x1d452;</tspan></text>
<path transform="matrix(.00007874016,0,0,.00007874016,275.2909,63.345399)" stroke-width="19050" stroke-linecap="butt" stroke-linejoin="round" fill="none" stroke="#4472c4" d="M0 0H1964574V246611H0Z"/>
<text xml:space="preserve" transform="matrix(.2181818 0 -0 .2181818 277.8385 469.74546)" font-size="72.99999" font-family="CambriaMath"><tspan y="-1792" x="0">&#x2200;</tspan></text>
<text xml:space="preserve" transform="matrix(.2181818 0 -0 .2181818 287.8385 469.74546)" font-size="72.99999" font-family="CambriaMath"><tspan y="-1792" x="0 40.6756 81.3512 116.332798 145.5474 195.42099">&#x1d45d;&#x1d44e;&#x1d45f;&#x1d461;&#x1d442;&#x1d453;</tspan></text>
<text xml:space="preserve" transform="matrix(.2181818 0 -0 .2181818 339.6836 469.74546)" font-size="72.99999" font-family="CambriaMath"><tspan y="-1792" x="0">.</tspan></text>
<text xml:space="preserve" transform="matrix(.2181818 0 -0 .2181818 345.5985 469.74546)" font-size="72.99999" font-family="CambriaMath"><tspan y="-1792" x="0 43.544496 82.48999 124.282489 153.51898 176.98848 218.78098 260.5735 301.271 343.06349">&#x1d436;&#x1d45c;&#x1d45b;&#x1d461;&#x1d456;&#x1d45b;&#x1d462;&#x1d44e;&#x1d45b;&#x1d461;</tspan></text>
<text xml:space="preserve" transform="matrix(.2181818 0 -0 .2181818 7.046866 576.4364)" font-size="72.99999" font-family="CambriaMath"><tspan y="-1792" x="0 61.305395 96.8418 132.9622">meat</tspan></text>
<text xml:space="preserve" transform="matrix(.2181818 0 -0 .2181818 19.90549 690.10916)" font-size="72.99999" font-family="TimesNewRomanPSMT"><tspan y="-1792" x="0 57.290399 89.90679 122.523189">meat</tspan></text>
<text fill="#c00000" xml:space="preserve" transform="matrix(.2181818 0 -0 .2181818 55.15549 690.10916)" font-size="72.99999" font-family="TimesNewRomanPSMT"><tspan y="-1792" x="0 20.6225 57.304998 89.972499">that</tspan></text>
<text xml:space="preserve" transform="matrix(.2181818 0 -0 .2181818 83.28048 690.10916)" font-size="72.99999" font-family="TimesNewRomanPSMT"><tspan y="-1792" x="0 36.667898 69.32079 93.943698 114.5516 151.2195 183.87239">derives</tspan></text>
<text xml:space="preserve" transform="matrix(.2181818 0 -0 .2181818 133.6555 690.10916)" font-size="72.99999" font-family="TimesNewRomanPSMT"><tspan y="-1792" x="0 24.637497 49.274995 85.95748">from</tspan></text>
<text xml:space="preserve" transform="matrix(.2181818 0 -0 .2181818 168.9055 690.10916)" font-size="72.99999" font-family="TimesNewRomanPSMT"><tspan y="-1792" x="0 28.645199 65.320407 122.58161">some</tspan></text>
<text xml:space="preserve" transform="matrix(.2181818 0 -0 .2181818 206.7805 690.10916)" font-size="72.99999" font-family="TimesNewRomanPSMT"><tspan y="-1792" x="0 32.6529 65.3058 85.9137 106.52159 127.129489">cattle</tspan></text>
<text fill="#c00000" xml:space="preserve" transform="matrix(.2181818 0 -0 .2181818 245.6555 690.10916)" font-size="72.99999" font-family="TimesNewRomanPSMT"><tspan y="-1792" x="0 32.6529 69.3208">and</tspan></text>
<text xml:space="preserve" transform="matrix(.2181818 0 -0 .2181818 272.7805 690.10916)" font-size="72.99999" font-family="TimesNewRomanPSMT"><tspan y="-1792" x="0 20.6225">is</tspan></text>
<text xml:space="preserve" transform="matrix(.2181818 0 -0 .2181818 287.5305 690.10916)" font-size="72.99999" font-family="TimesNewRomanPSMT"><tspan y="-1792" x="0 36.667898 69.32079 93.943698">part</tspan></text>
<text xml:space="preserve" transform="matrix(.2181818 0 -0 .2181818 316.5305 690.10916)" font-size="72.99999" font-family="TimesNewRomanPSMT"><tspan y="-1792" x="0 36.667898">of</tspan></text>
<text xml:space="preserve" transform="matrix(.2181818 0 -0 .2181818 333.9055 690.10916)" font-size="72.99999" font-family="TimesNewRomanPSMT"><tspan y="-1792" x="0 36.667898 73.33579 93.943698">only</tspan></text>
<text xml:space="preserve" transform="matrix(.2181818 0 -0 .2181818 366.4055 690.10916)" font-size="72.99999" font-family="TimesNewRomanPSMT"><tspan y="-1792" x="0 32.6529 69.3208 105.9887 126.5966 147.2045 183.8724 220.54032 253.1932">continuan</tspan></text>
<text xml:space="preserve" transform="matrix(.2181818 0 -0 .2181818 429.6555 690.10916)" font-size="72.99999" font-family="TimesNewRomanPSMT"><tspan y="-1792" x="0">t</tspan></text>
<path transform="matrix(.00007874016,0,0,.00007874016,78.49094,121.163608)" stroke-width="19050" stroke-linecap="butt" stroke-linejoin="round" fill="none" stroke="#4472c4" d="M0 0H1244138V243840H0Z"/>
<text xml:space="preserve" transform="matrix(.2181818 0 -0 .2181818 80.65229 527.3455)" font-size="72.99999" font-family="CambriaMath"><tspan y="-1792" x="0 42.3984 78.51879 113.47119 136.9626 177.098 213.21842 247.0028 291.6642 326.6166 365.584">&#x1d451;&#x1d452;&#x1d45f;&#x1d456;&#x1d463;&#x1d452;&#x1d460;&#x1d439;&#x1d45f;&#x1d45c;&#x1d45a;</tspan></text>
<path transform="matrix(.00007874016,0,0,.00007874016,197.4,121.600009)" stroke-width="19050" stroke-linecap="butt" stroke-linejoin="round" fill="none" stroke="#4472c4" d="M0 0H615142V246611H0Z"/>
<text xml:space="preserve" transform="matrix(.2181818 0 -0 .2181818 199.3372 528)" font-size="72.99999" font-family="CambriaMath"><tspan y="-1792" x="0 43.544496 84.24199 113.47849 142.131 165.0165">&#x1d436;&#x1d44e;&#x1d461;&#x1d461;&#x1d459;&#x1d452;</tspan></text>
<path transform="matrix(1,0,0,-1,0,391)" d="M165.253 308.2364V288.3562H127.5818L128.3318 289.1062V274.9759H126.8318V289.8562H164.503L163.753 289.1062V308.2364ZM130.5818 275.9759 127.5818 269.9759 124.5818 275.9759Z" fill="#4472c4"/>
<path transform="matrix(1,0,0,-1,0,391)" d="M163.7045 308.2363V288.1145H221.6787L220.9287 288.8645V274.4926H222.4287V289.6145H164.4545L165.2045 288.8645V308.2363ZM218.6787 275.4926 221.6787 269.4926 224.6787 275.4926Z" fill="#4472c4"/>
<path transform="matrix(.00007874016,0,0,.00007874016,275.2909,121.600009)" stroke-width="19050" stroke-linecap="butt" stroke-linejoin="round" fill="none" stroke="#4472c4" d="M0 0H712123V243840H0Z"/>
<text xml:space="preserve" transform="matrix(.2181818 0 -0 .2181818 277.3636 527.7818)" font-size="72.99999" font-family="CambriaMath"><tspan y="-1792" x="0 40.6756 81.3512 116.332798 145.5474 195.42099">&#x1d45d;&#x1d44e;&#x1d45f;&#x1d461;&#x1d442;&#x1d453;</tspan></text>
<path transform="matrix(.00007874016,0,0,.00007874016,349.4728,121.600009)" stroke-width="19050" stroke-linecap="butt" stroke-linejoin="round" fill="none" stroke="#4472c4" d="M0 0H1091738V243840H0Z"/>
<text xml:space="preserve" transform="matrix(.2181818 0 -0 .2181818 351.4999 527.7818)" font-size="72.99999" font-family="CambriaMath"><tspan y="-1792" x="0 43.544496 82.48999 124.282489 153.51898 176.98848 218.78098 260.5735 301.271 343.06349">&#x1d436;&#x1d45c;&#x1d45b;&#x1d461;&#x1d456;&#x1d45b;&#x1d462;&#x1d44e;&#x1d45b;&#x1d461;</tspan></text>
<path transform="matrix(1,0,0,-1,0,391)" d="M353.4401 308.2363V288.1328H303.4363L304.1863 288.8828V274.5293H302.6863V289.6328H352.6901L351.9401 288.8828V308.2363ZM306.4363 275.5293 303.4363 269.5293 300.4363 275.5293Z" fill="#4472c4"/>
<path transform="matrix(1,0,0,-1,0,391)" d="M351.9954 308.2364V288.1328H392.5659L391.8159 288.8828V274.5293H393.3159V289.6328H352.7454L353.4954 288.8828V308.2364ZM389.5659 275.5293 392.5659 269.5293 395.5659 275.5293Z" fill="#4472c4"/>
<text xml:space="preserve" transform="matrix(.2181818 0 -0 .2181818 337.3776 489.81819)" font-size="72.99999" font-family="CambriaMath"><tspan y="-1792" x="0">&#x2200;</tspan></text>
<text xml:space="preserve" transform="matrix(.2181818 0 -0 .2181818 168.3056 489.81819)" font-size="72.99999" font-family="CambriaMath"><tspan y="-1792" x="0">&#x2203;</tspan></text>
<text xml:space="preserve" transform="matrix(.2181818 0 -0 .2181818 209.1464 434.18183)" font-size="72.99999" font-family="CambriaMath"><tspan y="-1792" x="0">&#x2293;</tspan></text>
<path transform="matrix(1,0,0,-1,0,391)" d="M24.41167 308.2431 24.37149 303.7433 25.87143 303.7299 25.91161 308.2297ZM24.35809 302.2433 24.31791 297.7435 25.81785 297.7301 25.85803 302.2299ZM24.30451 296.2436 24.26433 291.7437 25.76427 291.7303 25.80445 296.2302ZM24.25093 290.2438 24.21075 285.744 25.71069 285.7306 25.75087 290.2304ZM24.19735 284.244 24.15717 279.7442 25.65711 279.7308 25.69729 284.2306ZM24.14377 278.2443 24.10359 273.7445 25.60353 273.7311 25.64371 278.2309ZM24.09019 272.2445 24.05001 267.7447 25.54995 267.7313 25.59013 272.2311ZM24.03661 266.2448 23.99643 261.7449 25.49637 261.7315 25.53655 266.2314ZM23.98303 260.245 23.94285 255.7452 25.44279 255.7318 25.48297 260.2316ZM23.92945 254.2452 23.88927 249.7454 25.38921 249.732 25.42939 254.2318ZM23.87587 248.2455 23.83569 243.7456 25.33563 243.7323 25.37581 248.2321ZM23.82229 242.2457 23.78211 237.7459 25.28205 237.7325 25.32223 242.2323ZM23.76871 236.2459 23.72853 231.7461 25.22847 231.7327 25.26865 236.2326ZM23.71513 230.2462 23.67648 225.9183 25.17642 225.9049 25.21507 230.2328ZM21.4355 226.9383 24.3818 220.9117 27.43526 226.8847Z" fill="#70ad47"/>
<text xml:space="preserve" transform="matrix(.2181818 0 -0 .2181818 84.69466 576.4364)" font-size="72.99999" font-family="CambriaMath"><tspan y="-1792" x="0">d</tspan></text>
<text xml:space="preserve" transform="matrix(.2181818 0 -0 .2181818 93.56966 576.4364)" font-size="72.99999" font-family="CambriaMath"><tspan y="-1792" x="0 35.5218 65.8606 84.7384 120.2602 155.782">erives</tspan></text>
<text xml:space="preserve" transform="matrix(.2181818 0 -0 .2181818 134.4447 576.4364)" font-size="72.99999" font-family="CambriaMath"><tspan y="-1792" x="0">&#x0009;</tspan></text>
<text xml:space="preserve" transform="matrix(.2181818 0 -0 .2181818 137.9447 576.4364)" font-size="72.99999" font-family="CambriaMath"><tspan y="-1792" x="0 22.345299 51.552598 90.54189">from</tspan></text>
<path transform="matrix(1,0,0,-1,0,391)" d="M128.3317 250.647 128.3957 246.1475 126.8958 246.1262 126.8319 250.6257ZM128.417 244.6476 128.4809 240.1481 126.9811 240.1268 126.9171 244.6263ZM128.5022 238.6482 128.5662 234.1487 127.0663 234.1274 127.0024 238.6269ZM128.5875 232.6489 128.6514 228.1493 127.1516 228.128 127.0877 232.6275ZM128.6728 226.6495 128.6824 225.9699 127.1826 225.9486 127.1729 226.6281ZM130.918 227.0018 128.0035 220.9598 124.9186 226.9165Z" fill="#70ad47"/>
<text xml:space="preserve" transform="matrix(.2181818 0 -0 .2181818 203.0064 576.4364)" font-size="72.99999" font-family="CambriaMath"><tspan y="-1792" x="0 32.083498 67.59799 92.23549 116.872989 136.91149">cattle</tspan></text>
<path transform="matrix(1,0,0,-1,0,391)" d="M222.3681 249.9892 222.4126 245.4894 220.9126 245.4746 220.8682 249.9744ZM222.4274 243.9895 222.4718 239.4897 220.9719 239.4749 220.9274 243.9747ZM222.4866 237.9898 222.531 233.49 221.0311 233.4752 220.9867 237.975ZM222.5458 231.9901 222.5902 227.4903 221.0903 227.4755 221.0459 231.9753ZM222.6051 225.9904 222.607 225.7957 221.1071 225.7809 221.1051 225.9756ZM224.847 226.8179 221.9064 220.7886 218.8473 226.7587Z" fill="#70ad47"/>
<text xml:space="preserve" transform="matrix(.2181818 0 -0 .2181818 273.676 576.4364)" font-size="72.99999" font-family="CambriaMath"><tspan y="-1792" x="0">i</tspan></text>
<text xml:space="preserve" transform="matrix(.2181818 0 -0 .2181818 278.176 576.4364)" font-size="72.99999" font-family="CambriaMath"><tspan y="-1792" x="0">s</tspan></text>
<text xml:space="preserve" transform="matrix(.2181818 0 -0 .2181818 285.051 576.4364)" font-size="72.99999" font-family="CambriaMath"><tspan y="-1792" x="0">&#x0009;</tspan></text>
<text xml:space="preserve" transform="matrix(.2181818 0 -0 .2181818 288.5509 576.4364)" font-size="72.99999" font-family="CambriaMath"><tspan y="-1792" x="0 40.675603 76.1682 106.5508">part</tspan></text>
<text xml:space="preserve" transform="matrix(.2181818 0 -0 .2181818 317.1759 576.4364)" font-size="72.99999" font-family="CambriaMath"><tspan y="-1792" x="0">&#x0009;</tspan></text>
<text xml:space="preserve" transform="matrix(.2181818 0 -0 .2181818 320.676 576.4364)" font-size="72.99999" font-family="CambriaMath"><tspan y="-1792" x="0 38.960096">of</tspan></text>
<path transform="matrix(1,0,0,-1,0,391)" d="M304.1862 250.2147 304.2745 245.7156 302.7748 245.6862 302.6865 250.1853ZM304.3039 244.2159 304.3922 239.7167 302.8924 239.6873 302.8042 244.1864ZM304.4216 238.217 304.5098 233.7179 303.0101 233.6885 302.9219 238.1876ZM304.5392 232.2182 304.6275 227.719 303.1278 227.6896 303.0395 232.1888ZM304.6569 226.2193 304.6615 225.9838 303.1618 225.9544 303.1572 226.1899ZM306.8915 227.0278 304.0098 220.9701 300.8927 226.9101Z" fill="#70ad47"/>
<text xml:space="preserve" transform="matrix(.2181818 0 -0 .2181818 359.5254 576.6545)" font-size="72.99999" font-family="CambriaMath"><tspan y="-1792" x="0 32.083498 71.02899 111.72649 136.36399 156.98648 197.68398 238.38147 274.47999 315.1775">continuant</tspan></text>
<path transform="matrix(1,0,0,-1,0,391)" d="M398.4409 247.5818V243.0818H396.9409V247.5818ZM398.441 241.5818V237.0818H396.941V241.5818ZM398.441 235.5818V231.0818H396.941V235.5818ZM398.441 229.5818V225.7754H396.941V229.5818ZM400.691 226.7754 397.691 220.7754 394.691 226.7754Z" fill="#70ad47"/>
<text xml:space="preserve" transform="matrix(.2181818 0 -0 .2181818 80.61044 632.9455)" font-size="72.99999" font-family="CambriaMath"><tspan y="-1792" x="0">d</tspan></text>
<text xml:space="preserve" transform="matrix(.2181818 0 -0 .2181818 89.48545 632.9455)" font-size="72.99999" font-family="CambriaMath"><tspan y="-1792" x="0 35.5218 65.8606 84.7384 120.2602 155.782">erives</tspan></text>
<text xml:space="preserve" transform="matrix(.2181818 0 -0 .2181818 130.3604 632.9455)" font-size="72.99999" font-family="CambriaMath"><tspan y="-1792" x="0">&#x0009;</tspan></text>
<text xml:space="preserve" transform="matrix(.2181818 0 -0 .2181818 133.8604 632.9455)" font-size="72.99999" font-family="CambriaMath"><tspan y="-1792" x="0 22.345299 51.552598 90.54189">from</tspan></text>
<text xml:space="preserve" transform="matrix(.2181818 0 -0 .2181818 166.8604 632.9455)" font-size="72.99999" font-family="CambriaMath"><tspan y="-1792" x="0">&#x0009;</tspan></text>
<text fill="#c00000" xml:space="preserve" transform="matrix(.2181818 0 -0 .2181818 170.3604 632.9455)" font-size="72.99999" font-family="CambriaMath"><tspan y="-1792" x="0 31.506798 70.459598 131.7504">some</tspan></text>
<text xml:space="preserve" transform="matrix(.2181818 0 -0 .2181818 206.8604 632.9455)" font-size="72.99999" font-family="CambriaMath"><tspan y="-1792" x="0">&#x0009;</tspan></text>
<text xml:space="preserve" transform="matrix(.2181818 0 -0 .2181818 210.3604 632.9455)" font-size="72.99999" font-family="CambriaMath"><tspan y="-1792" x="0 32.083498 67.59799 92.23549 116.872989 136.91149">cattle</tspan></text>
<path transform="matrix(1,0,0,-1,0,391)" d="M127.2682 201.5455V197.0455H128.7682V201.5455ZM127.2682 195.5455V191.0455H128.7682V195.5455ZM127.2682 189.5455V185.0455H128.7682V189.5455ZM127.2682 183.5455V182.2885H132.0112V183.7885H128.0182L128.7682 183.0385V183.5455ZM133.5112 182.2885H138.0112V183.7885H133.5112ZM139.5112 182.2885H144.0112V183.7885H139.5112ZM145.5112 182.2885H150.0112V183.7885H145.5112ZM151.5112 182.2885H156.0112V183.7885H151.5112ZM157.5112 182.2885H162.0112V183.7885H157.5112ZM163.5112 182.2885H164.5177L163.7677 183.0385V179.5449H165.2677V183.7885H163.5112ZM163.7677 178.0449V173.5449H165.2677V178.0449ZM163.7677 172.0449V169.5315H165.2677V172.0449ZM161.5177 170.5315 164.5177 164.5315 167.5177 170.5315Z" fill="#70ad47"/>
<text xml:space="preserve" transform="matrix(.2181818 0 -0 .2181818 271.6059 632.9455)" font-size="72.99999" font-family="CambriaMath"><tspan y="-1792" x="0 20.6225">is</tspan></text>
<text xml:space="preserve" transform="matrix(.2181818 0 -0 .2181818 282.9809 632.9455)" font-size="72.99999" font-family="CambriaMath"><tspan y="-1792" x="0">&#x0009;</tspan></text>
<text xml:space="preserve" transform="matrix(.2181818 0 -0 .2181818 286.481 632.9455)" font-size="72.99999" font-family="CambriaMath"><tspan y="-1792" x="0 40.675603 76.1682 106.5508">part</tspan></text>
<text xml:space="preserve" transform="matrix(.2181818 0 -0 .2181818 315.1059 632.9455)" font-size="72.99999" font-family="CambriaMath"><tspan y="-1792" x="0">&#x0009;</tspan></text>
<text xml:space="preserve" transform="matrix(.2181818 0 -0 .2181818 318.6059 632.9455)" font-size="72.99999" font-family="CambriaMath"><tspan y="-1792" x="0 38.960096">of</tspan></text>
<text xml:space="preserve" transform="matrix(.2181818 0 -0 .2181818 331.9809 632.9455)" font-size="72.99999" font-family="CambriaMath"><tspan y="-1792" x="0">&#x0009;</tspan></text>
<text fill="#c00000" xml:space="preserve" transform="matrix(.2181818 0 -0 .2181818 335.4809 632.9455)" font-size="72.99999" font-family="CambriaMath"><tspan y="-1792" x="0 38.960096 79.59919 97.90029">only</tspan></text>
<text xml:space="preserve" transform="matrix(.2181818 0 -0 .2181818 364.9809 632.9455)" font-size="72.99999" font-family="CambriaMath"><tspan y="-1792" x="0">&#x0009;</tspan></text>
<text xml:space="preserve" transform="matrix(.2181818 0 -0 .2181818 368.4809 632.9455)" font-size="72.99999" font-family="CambriaMath"><tspan y="-1792" x="0 32.083498 71.02899 111.72649 136.36399 156.98648 197.68398 238.38147 274.47999 315.1775">continuant</tspan></text>
<path transform="matrix(1,0,0,-1,0,391)" d="M303.1228 201.5454V197.0454H304.6228V201.5454ZM303.1228 195.5454V191.0454H304.6228V195.5454ZM303.1228 189.5454V185.0454H304.6228V189.5454ZM303.1228 183.5454V182.2884H307.8657V183.7884H303.8728L304.6228 183.0384V183.5454ZM309.3657 182.2884H313.8657V183.7884H309.3657ZM315.3657 182.2884H319.8657V183.7884H315.3657ZM321.3657 182.2884H325.8657V183.7884H321.3657ZM327.3657 182.2884H331.8657V183.7884H327.3657ZM333.3657 182.2884H337.8657V183.7884H333.3657ZM339.3657 182.2884H343.8657V183.7884H339.3657ZM345.3657 182.2884H349.8657V183.7884H345.3657ZM351.3657 182.2884H355.8657V183.7884H351.3657ZM356.4054 182.828V178.328H357.9054V182.828ZM356.4054 176.828V172.328H357.9054V176.828ZM356.4054 170.828V169.5313H357.9054V170.828ZM354.1554 170.5313 357.1554 164.5313 360.1554 170.5313Z" fill="#70ad47"/>
<path transform="matrix(1,0,0,-1,0,391)" d="M163.7046 145.0364V140.5364H165.2046V145.0364ZM163.7046 139.0364V134.5364H165.2046V139.0364ZM163.7046 133.0364V128.5364H165.2046V133.0364ZM163.7046 127.0364V124.4091H167.0772V125.9091H164.4546L165.2046 125.1591V127.0364ZM168.5772 124.4091H173.0772V125.9091H168.5772ZM174.5772 124.4091H179.0772V125.9091H174.5772ZM180.5772 124.4091H185.0772V125.9091H180.5772ZM186.5772 124.4091H191.0772V125.9091H186.5772ZM192.5772 124.4091H197.0772V125.9091H192.5772ZM198.5772 124.4091H203.0772V125.9091H198.5772ZM204.5772 124.4091H209.0772V125.9091H204.5772ZM210.5772 124.4091H215.0772V125.9091H210.5772ZM216.5772 124.4091H221.0772V125.9091H216.5772ZM222.5772 124.4091H227.0772V125.9091H222.5772ZM228.5772 124.4091H229.183L228.433 125.1591V121.2648H229.933V125.9091H228.5772ZM228.433 119.7648V115.2648H229.933V119.7648ZM228.433 113.7648V112.2281H229.933V113.7648ZM226.183 113.2281 229.183 107.2281 232.183 113.2281Z" fill="#70ad47"/>
<path transform="matrix(0,.00007874016,.00007874016,0,24.38176,189.4546)" stroke-width="19050" stroke-linecap="butt" stroke-dasharray="57150,19050" stroke-miterlimit="8" stroke-linejoin="miter" fill="none" stroke="#70ad47" d="M0 0H967924V1770227"/>
<path transform="matrix(0,.00007874016,-.00007874016,-0,357.2595,245.9637)" stroke-width="19050" stroke-linecap="butt" stroke-dasharray="57150,19050" stroke-miterlimit="8" stroke-linejoin="miter" fill="none" stroke="#70ad47" d="M0 0H251628V1678311"/>
<path transform="matrix(0,.00007874016,-.00007874016,-0,221.9669,189.4546)" stroke-width="19050" stroke-linecap="butt" stroke-dasharray="57150,19050" stroke-miterlimit="8" stroke-linejoin="miter" fill="none" stroke="#70ad47" d="M0 0H235038V730407"/>
<path transform="matrix(0,.00007874016,-.00007874016,-0,396.7712,189.6728)" stroke-width="19050" stroke-linecap="butt" stroke-dasharray="57150,19050" stroke-miterlimit="8" stroke-linejoin="miter" fill="none" stroke="#70ad47" d="M0 0H232850V500939"/>
<path transform="matrix(.00007874016,0,0,.00007874016,27.65456,1.1636047)" stroke-width="19050" stroke-linecap="butt" stroke-linejoin="round" fill="none" stroke="#4472c4" d="M0 0H4987636V338051H0Z"/>
<text xml:space="preserve" transform="matrix(.2181818 0 -0 .2181818 33.25198 411.05458)" font-size="72.99999" font-family="CambriaMath"><tspan y="-1792" x="0 62.451494 99.133998 139.83148">&#x1d440;&#x1d452;&#x1d44e;&#x1d461;</tspan></text>
<text xml:space="preserve" transform="matrix(.2181818 0 -0 .2181818 73.94698 411.05458)" font-size="72.99999" font-family="CambriaMath"><tspan y="-1792" x="0">&#x2293;</tspan></text>
<text xml:space="preserve" transform="matrix(.2181818 0 -0 .2181818 89.00198 411.05458)" font-size="72.99999" font-family="CambriaMath"><tspan y="-1792" x="0">&#x2203;</tspan></text>
<text xml:space="preserve" transform="matrix(.2181818 0 -0 .2181818 98.37698 411.05458)" font-size="72.99999" font-family="CambriaMath"><tspan y="-1792" x="0 42.3984 78.51879 113.47119 136.9626 177.098 213.21842 247.0028 291.6642 326.6166 365.584">&#x1d451;&#x1d452;&#x1d45f;&#x1d456;&#x1d463;&#x1d452;&#x1d460;&#x1d439;&#x1d45f;&#x1d45c;&#x1d45a;</tspan></text>
<text xml:space="preserve" transform="matrix(.2181818 0 -0 .2181818 191.777 411.05458)" font-size="72.99999" font-family="CambriaMath"><tspan y="-1792" x="0">.</tspan></text>
<text xml:space="preserve" transform="matrix(.2181818 0 -0 .2181818 197.692 411.05458)" font-size="72.99999" font-family="CambriaMath"><tspan y="-1792" x="0 43.544496 84.24199 113.47849 142.131 165.0165">&#x1d436;&#x1d44e;&#x1d461;&#x1d461;&#x1d459;&#x1d452;</tspan></text>
<text xml:space="preserve" transform="matrix(.2181818 0 -0 .2181818 245.597 411.05458)" font-size="72.99999" font-family="CambriaMath"><tspan y="-1792" x="0">&#x2293;</tspan></text>
<text xml:space="preserve" transform="matrix(.2181818 0 -0 .2181818 260.652 411.05458)" font-size="72.99999" font-family="CambriaMath"><tspan y="-1792" x="0">&#x2200;</tspan></text>
<text xml:space="preserve" transform="matrix(.2181818 0 -0 .2181818 270.652 411.05458)" font-size="72.99999" font-family="CambriaMath"><tspan y="-1792" x="0 40.6756 81.3512 116.332798 145.5474 195.42099">&#x1d45d;&#x1d44e;&#x1d45f;&#x1d461;&#x1d442;&#x1d453;</tspan></text>
<text xml:space="preserve" transform="matrix(.2181818 0 -0 .2181818 322.497 411.05458)" font-size="72.99999" font-family="CambriaMath"><tspan y="-1792" x="0">.</tspan></text>
<text xml:space="preserve" transform="matrix(.2181818 0 -0 .2181818 328.412 411.05458)" font-size="72.99999" font-family="CambriaMath"><tspan y="-1792" x="0 43.544496 82.48999 124.282489 153.51898 176.98848 218.78098 260.5735 301.271 343.06349">&#x1d436;&#x1d45c;&#x1d45b;&#x1d461;&#x1d456;&#x1d45b;&#x1d462;&#x1d44e;&#x1d45b;&#x1d461;</tspan></text>
<path transform="matrix(1,0,0,-1,0,391)" d="M224.8299 363.2182V344.6704H25.25451L26.00451 345.4204V332.6229H24.50451V346.1704H224.0799L223.3299 345.4204V363.2182ZM28.25451 333.6229 25.25451 327.6229 22.25451 333.6229Z" fill="#4472c4"/>
<path transform="matrix(1,0,0,-1,0,391)" d="M224.7818 363.2182V344.6705H164.4545L165.2045 345.4205V332.6229H163.7045V346.1705H224.0318L223.2818 345.4205V363.2182ZM167.4545 333.6229 164.4545 327.6229 161.4545 333.6229Z" fill="#4472c4"/>
<path transform="matrix(1,0,0,-1,0,391)" d="M223.2681 363.2182V344.6705H352.6643L351.9143 345.4205V332.6229H353.4143V346.1705H224.0181L224.7681 345.4205V363.2182ZM349.6643 333.6229 352.6643 327.6229 355.6643 333.6229Z" fill="#4472c4"/>
<path transform="matrix(1,0,0,-1,0,391)" d="M151.9968 55.58181V40.94204H138.4909L139.2409 41.69204V32.80228H137.7409V42.44204H151.2468L150.4968 41.69204V55.58181ZM141.4909 33.80228 138.4909 27.80228 135.4909 33.80228Z" fill="#4472c4"/>
<path transform="matrix(1,0,0,-1,0,391)" d="M150.3954 55.58181V40.97039H163.7807L163.0307 41.72039V32.85897H164.5307V42.47039H151.1454L151.8954 41.72039V55.58181ZM160.7807 33.85897 163.7807 27.85897 166.7807 33.85897Z" fill="#4472c4"/>
<text fill="#4472c4" xml:space="preserve" transform="matrix(.2181818 0 -0 .2181818 95.98722 771.7091)" font-size="55" font-family="TimesNewRomanPSMT"><tspan y="-1792" x="0">s</tspan></text>
<text fill="#4472c4" xml:space="preserve" transform="matrix(.2181818 0 -0 .2181818 100.6122 771.7091)" font-size="55" font-family="TimesNewRomanPSMT"><tspan y="-1792" x="0 27.5 42.966 58.4375 73.9035 87.6535 103.12501 130.625 146.09651 173.59651 187.34651 208.54352 236.04352">plit into sub</tspan></text>
<text fill="#4472c4" xml:space="preserve" transform="matrix(.2181818 0 -0 .2181818 158.1122 771.7091)" font-size="55" font-family="TimesNewRomanPSMT"><tspan y="-1792" x="0">-</tspan></text>
<text fill="#4472c4" xml:space="preserve" transform="matrix(.2181818 0 -0 .2181818 162.1122 771.7091)" font-size="55" font-family="TimesNewRomanPSMT"><tspan y="-1792" x="0 18.331501 45.8315 64.163 107.13451 134.6345 150.10602 174.74051">formulas</tspan></text>
<path transform="matrix(1,0,0,-1,0,391)" d="M290.25 55.79999V51.29999H291.75V55.79999ZM290.25 49.79999V45.29999H291.75V49.79999ZM290.25 43.79999V40.87704H293.3271V42.37704H291L291.75 41.62704V43.79999ZM294.8271 40.87704H299.3271V42.37704H294.8271ZM300.8271 40.87704H303.7559L303.0059 41.62704V40.0559H304.5059V42.37704H300.8271ZM303.0059 38.5559V34.0559H304.5059V38.5559ZM303.0059 32.5559V32.45353H304.5059V32.5559ZM300.7559 33.45353 303.7559 27.45353 306.7559 33.45353Z" fill="#70ad47"/>
<path transform="matrix(.00007874016,0,0,-.00007874016,303.6545,349.37324)" stroke-width="19050" stroke-linecap="butt" stroke-dasharray="57150,19050" stroke-miterlimit="8" stroke-linejoin="miter" fill="none" stroke="#70ad47" d="M0 0H165421.5V180000H162000"/>
<text fill="#70ad47" xml:space="preserve" transform="matrix(.2181818 0 -0 .2181818 255.4334 771.7091)" font-size="55" font-family="TimesNewRomanPSMT"><tspan y="-1792" x="0 42.966005 67.6005 85.93201 113.43201">merge</tspan></text>
<text fill="#70ad47" xml:space="preserve" transform="matrix(.2181818 0 -0 .2181818 288.5583 771.7091)" font-size="55" font-family="TimesNewRomanPSMT"><tspan y="-1792" x="0 27.5 52.134504 70.466 97.966 122.6005 138.0665 153.53801 174.73502 199.3695 214.84102 230.31253 257.81254">verbalisation</tspan></text>
</svg>
