<svg width="2567" height="2282" xmlns="http://www.w3.org/2000/svg" xmlns:xlink="http://www.w3.org/1999/xlink" xml:space="preserve" overflow="hidden"><g transform="translate(-925 -165)"><g><rect x="933.5" y="433.5" width="488" height="89" stroke="#4472C4" stroke-width="6.875" stroke-linecap="butt" stroke-linejoin="round" stroke-miterlimit="10" stroke-opacity="1" fill="none"/><text fill="#000000" fill-opacity="1" font-family="Cambria Math,Cambria Math_MSFontService,sans-serif" font-style="normal" font-variant="normal" font-weight="400" font-stretch="normal" font-size="73" text-anchor="start" direction="ltr" writing-mode="lr-tb" unicode-bidi="normal" text-decoration="none" transform="matrix(1 0 0 1 960.447 504)">ğ¹ğ‘œğ‘œğ‘‘ğ‘ƒğ‘Ÿğ‘œğ‘‘ğ‘¢ğ‘ğ‘¡</text><rect x="1502.5" y="433.5" width="1965" height="89" stroke="#4472C4" stroke-width="6.875" stroke-linecap="butt" stroke-linejoin="round" stroke-miterlimit="10" stroke-opacity="1" fill="none"/><text fill="#000000" fill-opacity="1" font-family="Cambria Math,Cambria Math_MSFontService,sans-serif" font-style="normal" font-variant="normal" font-weight="400" font-stretch="normal" font-size="73" text-anchor="start" direction="ltr" writing-mode="lr-tb" unicode-bidi="normal" text-decoration="none" transform="matrix(1 0 0 1 1518.82 504)">âˆƒ</text><text fill="#000000" fill-opacity="1" font-family="Cambria Math,Cambria Math_MSFontService,sans-serif" font-style="normal" font-variant="normal" font-weight="400" font-stretch="normal" font-size="73" text-anchor="start" direction="ltr" writing-mode="lr-tb" unicode-bidi="normal" text-decoration="none" transform="matrix(1 0 0 1 1561.79 504)">.</text><text fill="#000000" fill-opacity="1" font-family="Cambria Math,Cambria Math_MSFontService,sans-serif" font-style="normal" font-variant="normal" font-weight="400" font-stretch="normal" font-size="73" text-anchor="start" direction="ltr" writing-mode="lr-tb" unicode-bidi="normal" text-decoration="none" transform="matrix(1 0 0 1 1588.9 504)">ğ‘‘ğ‘’ğ‘Ÿğ‘–ğ‘£ğ‘’ğ‘ ğ¹ğ‘Ÿğ‘œğ‘š</text><text fill="#000000" fill-opacity="1" font-family="Cambria Math,Cambria Math_MSFontService,sans-serif" font-style="normal" font-variant="normal" font-weight="400" font-stretch="normal" font-size="73" text-anchor="start" direction="ltr" writing-mode="lr-tb" unicode-bidi="normal" text-decoration="none" transform="matrix(1 0 0 1 2016.98 504)">.</text><text fill="#000000" fill-opacity="1" font-family="Cambria Math,Cambria Math_MSFontService,sans-serif" font-style="normal" font-variant="normal" font-weight="400" font-stretch="normal" font-size="73" text-anchor="start" direction="ltr" writing-mode="lr-tb" unicode-bidi="normal" text-decoration="none" transform="matrix(1 0 0 1 2044.09 504)">(</text><text fill="#000000" fill-opacity="1" font-family="Cambria Math,Cambria Math_MSFontService,sans-serif" font-style="normal" font-variant="normal" font-weight="400" font-stretch="normal" font-size="73" text-anchor="start" direction="ltr" writing-mode="lr-tb" unicode-bidi="normal" text-decoration="none" transform="matrix(1 0 0 1 2074.45 504)">ğ¼</text><text fill="#000000" fill-opacity="1" font-family="Cambria Math,Cambria Math_MSFontService,sans-serif" font-style="normal" font-variant="normal" font-weight="400" font-stretch="normal" font-size="73" text-anchor="start" direction="ltr" writing-mode="lr-tb" unicode-bidi="normal" text-decoration="none" transform="matrix(1 0 0 1 2102.53 504)">ğ‘›ğ‘£ğ‘’ğ‘Ÿğ‘¡ğ‘’ğ‘ğ‘Ÿğ‘ğ‘¡ğ‘’ğ´ğ‘›ğ‘–ğ‘šğ‘ğ‘™</text><text fill="#000000" fill-opacity="1" font-family="Cambria Math,Cambria Math_MSFontService,sans-serif" font-style="normal" font-variant="normal" font-weight="400" font-stretch="normal" font-size="73" text-anchor="start" direction="ltr" writing-mode="lr-tb" unicode-bidi="normal" text-decoration="none" transform="matrix(1 0 0 1 2757.1 504)">âŠ”</text><text fill="#000000" fill-opacity="1" font-family="Cambria Math,Cambria Math_MSFontService,sans-serif" font-style="normal" font-variant="normal" font-weight="400" font-stretch="normal" font-size="73" text-anchor="start" direction="ltr" writing-mode="lr-tb" unicode-bidi="normal" text-decoration="none" transform="matrix(1 0 0 1 2826.1 504)">ğ‘‰ğ‘’ğ‘Ÿğ‘¡ğ‘’ğ‘ğ‘Ÿğ‘ğ‘¡ğ‘’ğ´ğ‘›ğ‘–ğ‘šğ‘ğ‘™</text><text fill="#000000" fill-opacity="1" font-family="Arial,Arial_MSFontService,sans-serif" font-style="normal" font-variant="normal" font-weight="400" font-stretch="normal" font-size="73" text-anchor="start" direction="ltr" writing-mode="lr-tb" unicode-bidi="normal" text-decoration="none" transform="matrix(1 0 0 1 3425.37 504)">)</text><text fill="#000000" fill-opacity="1" font-family="Cambria Math,Cambria Math_MSFontService,sans-serif" font-style="normal" font-variant="normal" font-weight="400" font-stretch="normal" font-size="73" text-anchor="start" direction="ltr" writing-mode="lr-tb" unicode-bidi="normal" text-decoration="none" transform="matrix(1 0 0 1 974.493 764)">f</text><text fill="#000000" fill-opacity="1" font-family="Cambria Math,Cambria Math_MSFontService,sans-serif" font-style="normal" font-variant="normal" font-weight="400" font-stretch="normal" font-size="73" text-anchor="start" direction="ltr" writing-mode="lr-tb" unicode-bidi="normal" text-decoration="none" transform="matrix(1 0 0 1 996.837 764)">ood</text><text fill="#000000" fill-opacity="1" font-family="Cambria Math,Cambria Math_MSFontService,sans-serif" font-style="normal" font-variant="normal" font-weight="400" font-stretch="normal" font-size="73" text-anchor="start" direction="ltr" writing-mode="lr-tb" unicode-bidi="normal" text-decoration="none" transform="matrix(1 0 0 1 1115.43 764)"> </text><text fill="#000000" fill-opacity="1" font-family="Cambria Math,Cambria Math_MSFontService,sans-serif" font-style="normal" font-variant="normal" font-weight="400" font-stretch="normal" font-size="73" text-anchor="start" direction="ltr" writing-mode="lr-tb" unicode-bidi="normal" text-decoration="none" transform="matrix(1 0 0 1 1131.47 764)">product</text><text fill="#000000" fill-opacity="1" font-family="Cambria Math,Cambria Math_MSFontService,sans-serif" font-style="normal" font-variant="normal" font-weight="400" font-stretch="normal" font-size="73" text-anchor="start" direction="ltr" writing-mode="lr-tb" unicode-bidi="normal" text-decoration="none" transform="matrix(1 0 0 1 1108.02 2060)">food produc</text><text fill="#000000" fill-opacity="1" font-family="Cambria Math,Cambria Math_MSFontService,sans-serif" font-style="normal" font-variant="normal" font-weight="400" font-stretch="normal" font-size="73" text-anchor="start" direction="ltr" writing-mode="lr-tb" unicode-bidi="normal" text-decoration="none" transform="matrix(1 0 0 1 1488.44 2060)">t</text><text fill="#C00000" fill-opacity="1" font-family="Cambria Math,Cambria Math_MSFontService,sans-serif" font-style="normal" font-variant="normal" font-weight="400" font-stretch="normal" font-size="73" text-anchor="start" direction="ltr" writing-mode="lr-tb" unicode-bidi="normal" text-decoration="none" transform="matrix(1 0 0 1 1529.11 2060)">that</text><text fill="#000000" fill-opacity="1" font-family="Cambria Math,Cambria Math_MSFontService,sans-serif" font-style="normal" font-variant="normal" font-weight="400" font-stretch="normal" font-size="73" text-anchor="start" direction="ltr" writing-mode="lr-tb" unicode-bidi="normal" text-decoration="none" transform="matrix(1 0 0 1 1671.2 2060)">derives from </text><text fill="#000000" fill-opacity="1" font-family="Cambria Math,Cambria Math_MSFontService,sans-serif" font-style="normal" font-variant="normal" font-weight="400" font-stretch="normal" font-size="73" text-anchor="start" direction="ltr" writing-mode="lr-tb" unicode-bidi="normal" text-decoration="none" transform="matrix(1 0 0 1 2087.71 2060)">invertebrate animal or vertebrate animal</text><rect x="1502.5" y="693.5" width="449" height="89.0001" stroke="#4472C4" stroke-width="6.875" stroke-linecap="butt" stroke-linejoin="round" stroke-miterlimit="10" stroke-opacity="1" fill="none"/><text fill="#000000" fill-opacity="1" font-family="Cambria Math,Cambria Math_MSFontService,sans-serif" font-style="normal" font-variant="normal" font-weight="400" font-stretch="normal" font-size="73" text-anchor="start" direction="ltr" writing-mode="lr-tb" unicode-bidi="normal" text-decoration="none" transform="matrix(1 0 0 1 1512.68 764)">ğ‘‘ğ‘’ğ‘Ÿğ‘–ğ‘£ğ‘’ğ‘ ğ¹ğ‘Ÿğ‘œğ‘š</text><rect x="2030.5" y="692.5" width="1437" height="88.9997" stroke="#4472C4" stroke-width="6.875" stroke-linecap="butt" stroke-linejoin="round" stroke-miterlimit="10" stroke-opacity="1" fill="none"/><text fill="#000000" fill-opacity="1" font-family="Cambria Math,Cambria Math_MSFontService,sans-serif" font-style="normal" font-variant="normal" font-weight="400" font-stretch="normal" font-size="73" text-anchor="start" direction="ltr" writing-mode="lr-tb" unicode-bidi="normal" text-decoration="none" transform="matrix(1 0 0 1 2071.33 763)">ğ¼ğ‘›ğ‘£ğ‘’ğ‘Ÿğ‘¡ğ‘’ğ‘ğ‘Ÿğ‘ğ‘¡ğ‘’ğ´ğ‘›ğ‘–ğ‘šğ‘ğ‘™</text><text fill="#000000" fill-opacity="1" font-family="Cambria Math,Cambria Math_MSFontService,sans-serif" font-style="normal" font-variant="normal" font-weight="400" font-stretch="normal" font-size="73" text-anchor="start" direction="ltr" writing-mode="lr-tb" unicode-bidi="normal" text-decoration="none" transform="matrix(1 0 0 1 2753.98 763)">âŠ”</text><text fill="#000000" fill-opacity="1" font-family="Cambria Math,Cambria Math_MSFontService,sans-serif" font-style="normal" font-variant="normal" font-weight="400" font-stretch="normal" font-size="73" text-anchor="start" direction="ltr" writing-mode="lr-tb" unicode-bidi="normal" text-decoration="none" transform="matrix(1 0 0 1 2822.98 763)">ğ‘‰ğ‘’ğ‘Ÿğ‘¡ğ‘’ğ‘ğ‘Ÿğ‘ğ‘¡ğ‘’ğ´ğ‘›ğ‘–ğ‘šğ‘ğ‘™</text><path d="M2520.51 522.5 2520.51 611.43 1734.5 611.43 1737.94 607.993 1737.94 670.567 1731.06 670.567 1731.06 604.555 2517.08 604.555 2513.64 607.993 2513.64 522.5ZM1748.25 665.984 1734.5 693.484 1720.75 665.984Z" fill="#4472C4" fill-rule="nonzero" fill-opacity="1"/><path d="M0-3.4375 88.7318-3.4375 88.7318 254.874 85.2943 251.436 147.672 251.436 147.672 258.311 81.8568 258.311 81.8568 0 85.2943 3.4375 0 3.4375ZM143.088 241.124 170.588 254.874 143.088 268.624Z" fill="#4472C4" fill-rule="nonzero" fill-opacity="1" transform="matrix(1.83697e-16 1 1 -1.83697e-16 2517.5 522.5)"/><text fill="#000000" fill-opacity="1" font-family="Cambria Math,Cambria Math_MSFontService,sans-serif" font-style="normal" font-variant="normal" font-weight="400" font-stretch="normal" font-size="73" text-anchor="start" direction="ltr" writing-mode="lr-tb" unicode-bidi="normal" text-decoration="none" transform="matrix(1 0 0 1 2361.44 595)">âˆƒ</text><text fill="#000000" fill-opacity="1" font-family="Cambria Math,Cambria Math_MSFontService,sans-serif" font-style="normal" font-variant="normal" font-weight="400" font-stretch="normal" font-size="73" text-anchor="start" direction="ltr" writing-mode="lr-tb" unicode-bidi="normal" text-decoration="none" transform="matrix(1 0 0 1 2070.18 364)">âŠ“</text><path d="M3.43744-0.0210405 3.56368 20.6036-3.31119 20.6457-3.43744 0.0210405ZM3.60576 27.4784 3.732 48.1031-3.14287 48.1451-3.26911 27.5205ZM3.77408 54.9779 3.90033 75.6025-2.97454 75.6446-3.10079 55.02ZM3.94241 82.4774 4.06865 103.102-2.80622 103.144-2.93246 82.5195ZM4.11073 109.977 4.23698 130.602-2.6379 130.644-2.76414 110.019ZM4.27906 137.476 4.34375 148.046-2.53112 148.088-2.59581 137.518ZM14.628 143.4 1.04659 170.983-12.8715 143.568Z" fill="#70AD47" fill-rule="nonzero" fill-opacity="1" transform="matrix(-1 0 0 1 1185.55 522.5)"/><text fill="#000000" fill-opacity="1" font-family="Cambria Math,Cambria Math_MSFontService,sans-serif" font-style="normal" font-variant="normal" font-weight="400" font-stretch="normal" font-size="73" text-anchor="start" direction="ltr" writing-mode="lr-tb" unicode-bidi="normal" text-decoration="none" transform="matrix(1 0 0 1 1526.98 1024)">d</text><text fill="#000000" fill-opacity="1" font-family="Cambria Math,Cambria Math_MSFontService,sans-serif" font-style="normal" font-variant="normal" font-weight="400" font-stretch="normal" font-size="73" text-anchor="start" direction="ltr" writing-mode="lr-tb" unicode-bidi="normal" text-decoration="none" transform="matrix(1 0 0 1 1567.65 1024)">erives</text><text fill="#000000" fill-opacity="1" font-family="Cambria Math,Cambria Math_MSFontService,sans-serif" font-style="normal" font-variant="normal" font-weight="400" font-stretch="normal" font-size="73" text-anchor="start" direction="ltr" writing-mode="lr-tb" unicode-bidi="normal" text-decoration="none" transform="matrix(1 0 0 1 1758.44 1024)"> </text><text fill="#000000" fill-opacity="1" font-family="Cambria Math,Cambria Math_MSFontService,sans-serif" font-style="normal" font-variant="normal" font-weight="400" font-stretch="normal" font-size="73" text-anchor="start" direction="ltr" writing-mode="lr-tb" unicode-bidi="normal" text-decoration="none" transform="matrix(1 0 0 1 1774.48 1024)">from</text><path d="M3.43748-0.0103826 3.49978 20.6145-3.37519 20.6353-3.43748 0.0103826ZM3.52054 27.4895 3.58284 48.1144-3.29213 48.1352-3.35442 27.5103ZM3.60361 54.9894 3.6659 75.6143-3.20907 75.635-3.27136 55.0101ZM3.68667 82.4892 3.74896 103.114-3.12601 103.135-3.1883 82.51ZM3.76973 109.989 3.83202 130.614-3.04295 130.635-3.10524 110.01ZM3.85279 137.489 3.8847 148.056-2.99026 148.077-3.02218 137.51ZM14.1833 143.442 0.516437 170.983-13.3166 143.525Z" fill="#70AD47" fill-rule="nonzero" fill-opacity="1" transform="matrix(-1 0 0 1 1735.02 782.5)"/><text fill="#000000" fill-opacity="1" font-family="Cambria Math,Cambria Math_MSFontService,sans-serif" font-style="normal" font-variant="normal" font-weight="400" font-stretch="normal" font-size="73" text-anchor="start" direction="ltr" writing-mode="lr-tb" unicode-bidi="normal" text-decoration="none" transform="matrix(1 0 0 1 1635.42 1803)">derives</text><text fill="#000000" fill-opacity="1" font-family="Cambria Math,Cambria Math_MSFontService,sans-serif" font-style="normal" font-variant="normal" font-weight="400" font-stretch="normal" font-size="73" text-anchor="start" direction="ltr" writing-mode="lr-tb" unicode-bidi="normal" text-decoration="none" transform="matrix(1 0 0 1 1866.87 1803)"> </text><text fill="#000000" fill-opacity="1" font-family="Cambria Math,Cambria Math_MSFontService,sans-serif" font-style="normal" font-variant="normal" font-weight="400" font-stretch="normal" font-size="73" text-anchor="start" direction="ltr" writing-mode="lr-tb" unicode-bidi="normal" text-decoration="none" transform="matrix(1 0 0 1 1882.91 1803)">from</text><text fill="#000000" fill-opacity="1" font-family="Cambria Math,Cambria Math_MSFontService,sans-serif" font-style="normal" font-variant="normal" font-weight="400" font-stretch="normal" font-size="73" text-anchor="start" direction="ltr" writing-mode="lr-tb" unicode-bidi="normal" text-decoration="none" transform="matrix(1 0 0 1 2035.31 1803)"> </text><text fill="#000000" fill-opacity="1" font-family="Cambria Math,Cambria Math_MSFontService,sans-serif" font-style="normal" font-variant="normal" font-weight="400" font-stretch="normal" font-size="73" text-anchor="start" direction="ltr" writing-mode="lr-tb" unicode-bidi="normal" text-decoration="none" transform="matrix(1 0 0 1 2051.35 1803)">invertebrate</text><text fill="#000000" fill-opacity="1" font-family="Cambria Math,Cambria Math_MSFontService,sans-serif" font-style="normal" font-variant="normal" font-weight="400" font-stretch="normal" font-size="73" text-anchor="start" direction="ltr" writing-mode="lr-tb" unicode-bidi="normal" text-decoration="none" transform="matrix(1 0 0 1 2442.08 1803)"> </text><text fill="#000000" fill-opacity="1" font-family="Cambria Math,Cambria Math_MSFontService,sans-serif" font-style="normal" font-variant="normal" font-weight="400" font-stretch="normal" font-size="73" text-anchor="start" direction="ltr" writing-mode="lr-tb" unicode-bidi="normal" text-decoration="none" transform="matrix(1 0 0 1 2458.12 1803)">animal</text><text fill="#000000" fill-opacity="1" font-family="Cambria Math,Cambria Math_MSFontService,sans-serif" font-style="normal" font-variant="normal" font-weight="400" font-stretch="normal" font-size="73" text-anchor="start" direction="ltr" writing-mode="lr-tb" unicode-bidi="normal" text-decoration="none" transform="matrix(1 0 0 1 2672.39 1803)"> </text><text fill="#000000" fill-opacity="1" font-family="Cambria Math,Cambria Math_MSFontService,sans-serif" font-style="normal" font-variant="normal" font-weight="400" font-stretch="normal" font-size="73" text-anchor="start" direction="ltr" writing-mode="lr-tb" unicode-bidi="normal" text-decoration="none" transform="matrix(1 0 0 1 2688.44 1803)">or</text><text fill="#000000" fill-opacity="1" font-family="Cambria Math,Cambria Math_MSFontService,sans-serif" font-style="normal" font-variant="normal" font-weight="400" font-stretch="normal" font-size="73" text-anchor="start" direction="ltr" writing-mode="lr-tb" unicode-bidi="normal" text-decoration="none" transform="matrix(1 0 0 1 2757.76 1803)"> </text><text fill="#000000" fill-opacity="1" font-family="Cambria Math,Cambria Math_MSFontService,sans-serif" font-style="normal" font-variant="normal" font-weight="400" font-stretch="normal" font-size="73" text-anchor="start" direction="ltr" writing-mode="lr-tb" unicode-bidi="normal" text-decoration="none" transform="matrix(1 0 0 1 2773.8 1803)">vertebrate</text><text fill="#000000" fill-opacity="1" font-family="Cambria Math,Cambria Math_MSFontService,sans-serif" font-style="normal" font-variant="normal" font-weight="400" font-stretch="normal" font-size="73" text-anchor="start" direction="ltr" writing-mode="lr-tb" unicode-bidi="normal" text-decoration="none" transform="matrix(1 0 0 1 3103.23 1803)"> </text><text fill="#000000" fill-opacity="1" font-family="Cambria Math,Cambria Math_MSFontService,sans-serif" font-style="normal" font-variant="normal" font-weight="400" font-stretch="normal" font-size="73" text-anchor="start" direction="ltr" writing-mode="lr-tb" unicode-bidi="normal" text-decoration="none" transform="matrix(1 0 0 1 3119.27 1803)">animal</text><rect x="933.5" y="173.5" width="2534" height="122" stroke="#4472C4" stroke-width="6.875" stroke-linecap="butt" stroke-linejoin="round" stroke-miterlimit="10" stroke-opacity="1" fill="none"/><text fill="#000000" fill-opacity="1" font-family="Cambria Math,Cambria Math_MSFontService,sans-serif" font-style="normal" font-variant="normal" font-weight="400" font-stretch="normal" font-size="73" text-anchor="start" direction="ltr" writing-mode="lr-tb" unicode-bidi="normal" text-decoration="none" transform="matrix(1 0 0 1 973.993 261)">ğ¹ğ‘œğ‘œğ‘‘ğ‘ƒğ‘Ÿğ‘œğ‘‘ğ‘¢ğ‘ğ‘¡</text><text fill="#000000" fill-opacity="1" font-family="Cambria Math,Cambria Math_MSFontService,sans-serif" font-style="normal" font-variant="normal" font-weight="400" font-stretch="normal" font-size="73" text-anchor="start" direction="ltr" writing-mode="lr-tb" unicode-bidi="normal" text-decoration="none" transform="matrix(1 0 0 1 1423.48 261)">âŠ“</text><text fill="#000000" fill-opacity="1" font-family="Cambria Math,Cambria Math_MSFontService,sans-serif" font-style="normal" font-variant="normal" font-weight="400" font-stretch="normal" font-size="73" text-anchor="start" direction="ltr" writing-mode="lr-tb" unicode-bidi="normal" text-decoration="none" transform="matrix(1 0 0 1 1492.48 261)">âˆƒ</text><text fill="#000000" fill-opacity="1" font-family="Cambria Math,Cambria Math_MSFontService,sans-serif" font-style="normal" font-variant="normal" font-weight="400" font-stretch="normal" font-size="73" text-anchor="start" direction="ltr" writing-mode="lr-tb" unicode-bidi="normal" text-decoration="none" transform="matrix(1 0 0 1 1535.45 261)">.</text><text fill="#000000" fill-opacity="1" font-family="Cambria Math,Cambria Math_MSFontService,sans-serif" font-style="normal" font-variant="normal" font-weight="400" font-stretch="normal" font-size="73" text-anchor="start" direction="ltr" writing-mode="lr-tb" unicode-bidi="normal" text-decoration="none" transform="matrix(1 0 0 1 1562.56 261)">ğ‘‘ğ‘’ğ‘Ÿğ‘–ğ‘£ğ‘’ğ‘ ğ¹ğ‘Ÿğ‘œğ‘š</text><text fill="#000000" fill-opacity="1" font-family="Cambria Math,Cambria Math_MSFontService,sans-serif" font-style="normal" font-variant="normal" font-weight="400" font-stretch="normal" font-size="73" text-anchor="start" direction="ltr" writing-mode="lr-tb" unicode-bidi="normal" text-decoration="none" transform="matrix(1 0 0 1 1990.64 261)">.</text><text fill="#000000" fill-opacity="1" font-family="Cambria Math,Cambria Math_MSFontService,sans-serif" font-style="normal" font-variant="normal" font-weight="400" font-stretch="normal" font-size="73" text-anchor="start" direction="ltr" writing-mode="lr-tb" unicode-bidi="normal" text-decoration="none" transform="matrix(1 0 0 1 2017.76 261)">(</text><text fill="#000000" fill-opacity="1" font-family="Cambria Math,Cambria Math_MSFontService,sans-serif" font-style="normal" font-variant="normal" font-weight="400" font-stretch="normal" font-size="73" text-anchor="start" direction="ltr" writing-mode="lr-tb" unicode-bidi="normal" text-decoration="none" transform="matrix(1 0 0 1 2048.12 261)">ğ¼</text><text fill="#000000" fill-opacity="1" font-family="Cambria Math,Cambria Math_MSFontService,sans-serif" font-style="normal" font-variant="normal" font-weight="400" font-stretch="normal" font-size="73" text-anchor="start" direction="ltr" writing-mode="lr-tb" unicode-bidi="normal" text-decoration="none" transform="matrix(1 0 0 1 2076.19 261)">ğ‘›ğ‘£ğ‘’ğ‘Ÿğ‘¡ğ‘’ğ‘ğ‘Ÿğ‘ğ‘¡ğ‘’ğ´ğ‘›ğ‘–ğ‘šğ‘ğ‘™</text><text fill="#000000" fill-opacity="1" font-family="Cambria Math,Cambria Math_MSFontService,sans-serif" font-style="normal" font-variant="normal" font-weight="400" font-stretch="normal" font-size="73" text-anchor="start" direction="ltr" writing-mode="lr-tb" unicode-bidi="normal" text-decoration="none" transform="matrix(1 0 0 1 2730.76 261)">âŠ”</text><text fill="#000000" fill-opacity="1" font-family="Cambria Math,Cambria Math_MSFontService,sans-serif" font-style="normal" font-variant="normal" font-weight="400" font-stretch="normal" font-size="73" text-anchor="start" direction="ltr" writing-mode="lr-tb" unicode-bidi="normal" text-decoration="none" transform="matrix(1 0 0 1 2799.76 261)">ğ‘‰ğ‘’ğ‘Ÿğ‘¡ğ‘’ğ‘ğ‘Ÿğ‘ğ‘¡ğ‘’ğ´ğ‘›ğ‘–ğ‘šğ‘ğ‘™</text><text fill="#000000" fill-opacity="1" font-family="Arial,Arial_MSFontService,sans-serif" font-style="normal" font-variant="normal" font-weight="400" font-stretch="normal" font-size="73" text-anchor="start" direction="ltr" writing-mode="lr-tb" unicode-bidi="normal" text-decoration="none" transform="matrix(1 0 0 1 3401.37 261)">) </text><rect x="2032.5" y="953.5" width="685" height="87.9999" stroke="#4472C4" stroke-width="6.875" stroke-linecap="butt" stroke-linejoin="round" stroke-miterlimit="10" stroke-opacity="1" fill="none"/><text fill="#000000" fill-opacity="1" font-family="Cambria Math,Cambria Math_MSFontService,sans-serif" font-style="normal" font-variant="normal" font-weight="400" font-stretch="normal" font-size="73" text-anchor="start" direction="ltr" writing-mode="lr-tb" unicode-bidi="normal" text-decoration="none" transform="matrix(1 0 0 1 2041.45 1024)">ğ¼ğ‘›ğ‘£ğ‘’ğ‘Ÿğ‘¡ğ‘’ğ‘ğ‘Ÿğ‘ğ‘¡ğ‘’ğ´ğ‘›ğ‘–ğ‘šğ‘ğ‘™</text><rect x="2782.5" y="953.5" width="685" height="87.9999" stroke="#4472C4" stroke-width="6.875" stroke-linecap="butt" stroke-linejoin="round" stroke-miterlimit="10" stroke-opacity="1" fill="none"/><text fill="#000000" fill-opacity="1" font-family="Cambria Math,Cambria Math_MSFontService,sans-serif" font-style="normal" font-variant="normal" font-weight="400" font-stretch="normal" font-size="73" text-anchor="start" direction="ltr" writing-mode="lr-tb" unicode-bidi="normal" text-decoration="none" transform="matrix(1 0 0 1 2823.32 1024)">ğ‘‰</text><text fill="#000000" fill-opacity="1" font-family="Cambria Math,Cambria Math_MSFontService,sans-serif" font-style="normal" font-variant="normal" font-weight="400" font-stretch="normal" font-size="73" text-anchor="start" direction="ltr" writing-mode="lr-tb" unicode-bidi="normal" text-decoration="none" transform="matrix(1 0 0 1 2869.15 1024)">ğ‘’ğ‘Ÿğ‘¡ğ‘’ğ‘ğ‘Ÿğ‘ğ‘¡ğ‘’ğ´ğ‘›ğ‘–ğ‘šğ‘ğ‘™</text><path d="M2775.82 781.5 2775.82 870.627 2386.5 870.627 2389.94 867.189 2389.94 929.962 2383.06 929.962 2383.06 863.752 2772.38 863.752 2768.94 867.189 2768.94 781.5ZM2400.25 925.379 2386.5 952.879 2372.75 925.379Z" fill="#4472C4" fill-rule="nonzero" fill-opacity="1"/><path d="M0-3.4375 89.1269-3.4375 89.1269 363.612 85.6894 360.174 148.462 360.174 148.462 367.049 82.2519 367.049 82.2519 0 85.6894 3.4375 0 3.4375ZM143.879 349.862 171.379 363.612 143.879 377.362Z" fill="#4472C4" fill-rule="nonzero" fill-opacity="1" transform="matrix(1.83697e-16 1 1 -1.83697e-16 2772.5 781.5)"/><text fill="#000000" fill-opacity="1" font-family="Cambria Math,Cambria Math_MSFontService,sans-serif" font-style="normal" font-variant="normal" font-weight="400" font-stretch="normal" font-size="73" text-anchor="start" direction="ltr" writing-mode="lr-tb" unicode-bidi="normal" text-decoration="none" transform="matrix(1 0 0 1 2677.69 851)">âŠ”</text><text fill="#000000" fill-opacity="1" font-family="Cambria Math,Cambria Math_MSFontService,sans-serif" font-style="normal" font-variant="normal" font-weight="400" font-stretch="normal" font-size="73" text-anchor="start" direction="ltr" writing-mode="lr-tb" unicode-bidi="normal" text-decoration="none" transform="matrix(1 0 0 1 2065.85 1283)">invertebrate</text><text fill="#000000" fill-opacity="1" font-family="Cambria Math,Cambria Math_MSFontService,sans-serif" font-style="normal" font-variant="normal" font-weight="400" font-stretch="normal" font-size="73" text-anchor="start" direction="ltr" writing-mode="lr-tb" unicode-bidi="normal" text-decoration="none" transform="matrix(1 0 0 1 2456.58 1283)"> </text><text fill="#000000" fill-opacity="1" font-family="Cambria Math,Cambria Math_MSFontService,sans-serif" font-style="normal" font-variant="normal" font-weight="400" font-stretch="normal" font-size="73" text-anchor="start" direction="ltr" writing-mode="lr-tb" unicode-bidi="normal" text-decoration="none" transform="matrix(1 0 0 1 2472.62 1283)">animal</text><text fill="#000000" fill-opacity="1" font-family="Cambria Math,Cambria Math_MSFontService,sans-serif" font-style="normal" font-variant="normal" font-weight="400" font-stretch="normal" font-size="73" text-anchor="start" direction="ltr" writing-mode="lr-tb" unicode-bidi="normal" text-decoration="none" transform="matrix(1 0 0 1 2844.24 1283)">vertebrate</text><text fill="#000000" fill-opacity="1" font-family="Cambria Math,Cambria Math_MSFontService,sans-serif" font-style="normal" font-variant="normal" font-weight="400" font-stretch="normal" font-size="73" text-anchor="start" direction="ltr" writing-mode="lr-tb" unicode-bidi="normal" text-decoration="none" transform="matrix(1 0 0 1 3173.67 1283)"> </text><text fill="#000000" fill-opacity="1" font-family="Cambria Math,Cambria Math_MSFontService,sans-serif" font-style="normal" font-variant="normal" font-weight="400" font-stretch="normal" font-size="73" text-anchor="start" direction="ltr" writing-mode="lr-tb" unicode-bidi="normal" text-decoration="none" transform="matrix(1 0 0 1 3189.71 1283)">animal</text><path d="M2389.94 1041.47 2390.15 1062.09 2383.27 1062.16 2383.06 1041.54ZM2390.22 1068.96 2390.43 1089.59 2383.55 1089.66 2383.34 1069.03ZM2390.5 1096.46 2390.71 1117.09 2383.83 1117.16 2383.62 1096.53ZM2390.78 1123.96 2390.99 1144.58 2384.11 1144.65 2383.9 1124.03ZM2391.06 1151.46 2391.27 1172.08 2384.39 1172.15 2384.18 1151.53ZM2391.34 1178.96 2391.45 1189.53 2384.57 1189.6 2384.46 1179.03ZM2401.71 1184.84 2388.24 1212.48 2374.21 1185.12Z" fill="#70AD47" fill-rule="nonzero" fill-opacity="1"/><path d="M3138.94 1041.5 3138.94 1062.13 3132.06 1062.13 3132.06 1041.5ZM3138.94 1069 3138.94 1089.63 3132.06 1089.63 3132.06 1069ZM3138.94 1096.5 3138.94 1117.13 3132.06 1117.13 3132.06 1096.5ZM3138.94 1124 3138.94 1144.63 3132.06 1144.63 3132.06 1124ZM3138.94 1151.5 3138.94 1172.13 3132.06 1172.13 3132.06 1151.5ZM3138.94 1179 3138.94 1189.57 3132.06 1189.57 3132.06 1179ZM3149.25 1184.98 3135.5 1212.48 3121.75 1184.98Z" fill="#70AD47" fill-rule="nonzero" fill-opacity="1"/><text fill="#000000" fill-opacity="1" font-family="Cambria Math,Cambria Math_MSFontService,sans-serif" font-style="normal" font-variant="normal" font-weight="400" font-stretch="normal" font-size="73" text-anchor="start" direction="ltr" writing-mode="lr-tb" unicode-bidi="normal" text-decoration="none" transform="matrix(1 0 0 1 2106.88 1543)">invertebrate</text><text fill="#000000" fill-opacity="1" font-family="Cambria Math,Cambria Math_MSFontService,sans-serif" font-style="normal" font-variant="normal" font-weight="400" font-stretch="normal" font-size="73" text-anchor="start" direction="ltr" writing-mode="lr-tb" unicode-bidi="normal" text-decoration="none" transform="matrix(1 0 0 1 2497.61 1543)"> </text><text fill="#000000" fill-opacity="1" font-family="Cambria Math,Cambria Math_MSFontService,sans-serif" font-style="normal" font-variant="normal" font-weight="400" font-stretch="normal" font-size="73" text-anchor="start" direction="ltr" writing-mode="lr-tb" unicode-bidi="normal" text-decoration="none" transform="matrix(1 0 0 1 2513.65 1543)">animal</text><text fill="#000000" fill-opacity="1" font-family="Cambria Math,Cambria Math_MSFontService,sans-serif" font-style="normal" font-variant="normal" font-weight="400" font-stretch="normal" font-size="73" text-anchor="start" direction="ltr" writing-mode="lr-tb" unicode-bidi="normal" text-decoration="none" transform="matrix(1 0 0 1 2727.92 1543)"> </text><text fill="#C00000" fill-opacity="1" font-family="Cambria Math,Cambria Math_MSFontService,sans-serif" font-style="normal" font-variant="normal" font-weight="400" font-stretch="normal" font-size="73" text-anchor="start" direction="ltr" writing-mode="lr-tb" unicode-bidi="normal" text-decoration="none" transform="matrix(1 0 0 1 2743.96 1543)">or</text><text fill="#000000" fill-opacity="1" font-family="Cambria Math,Cambria Math_MSFontService,sans-serif" font-style="normal" font-variant="normal" font-weight="400" font-stretch="normal" font-size="73" text-anchor="start" direction="ltr" writing-mode="lr-tb" unicode-bidi="normal" text-decoration="none" transform="matrix(1 0 0 1 2813.28 1543)"> </text><text fill="#000000" fill-opacity="1" font-family="Cambria Math,Cambria Math_MSFontService,sans-serif" font-style="normal" font-variant="normal" font-weight="400" font-stretch="normal" font-size="73" text-anchor="start" direction="ltr" writing-mode="lr-tb" unicode-bidi="normal" text-decoration="none" transform="matrix(1 0 0 1 2829.33 1543)">vertebrate</text><text fill="#000000" fill-opacity="1" font-family="Cambria Math,Cambria Math_MSFontService,sans-serif" font-style="normal" font-variant="normal" font-weight="400" font-stretch="normal" font-size="73" text-anchor="start" direction="ltr" writing-mode="lr-tb" unicode-bidi="normal" text-decoration="none" transform="matrix(1 0 0 1 3158.75 1543)"> </text><text fill="#000000" fill-opacity="1" font-family="Cambria Math,Cambria Math_MSFontService,sans-serif" font-style="normal" font-variant="normal" font-weight="400" font-stretch="normal" font-size="73" text-anchor="start" direction="ltr" writing-mode="lr-tb" unicode-bidi="normal" text-decoration="none" transform="matrix(1 0 0 1 3174.79 1543)">animal</text><path d="M0-3.4375 20.625-3.4375 20.625 3.4375 0 3.4375ZM27.5-3.4375 48.125-3.4375 48.125 3.4375 27.5 3.4375ZM55-3.4375 75.625-3.4375 75.625 3.4375 55 3.4375ZM82.5-3.4375 88.9291-3.4375 88.9291 17.6334 82.0541 17.6334 82.0541 0 85.4916 3.4375 82.5 3.4375ZM88.9291 24.5084 88.9291 45.1334 82.0541 45.1334 82.0541 24.5084ZM88.9291 52.0084 88.9291 72.6334 82.0541 72.6334 82.0541 52.0084ZM88.9291 79.5084 88.9291 100.133 82.0541 100.133 82.0541 79.5084ZM88.9291 107.008 88.9291 127.633 82.0541 127.633 82.0541 107.008ZM88.9291 134.508 88.9291 155.133 82.0541 155.133 82.0541 134.508ZM88.9291 162.008 88.9291 182.633 82.0541 182.633 82.0541 162.008ZM88.9291 189.508 88.9291 210.133 82.0541 210.133 82.0541 189.508ZM88.9291 217.008 88.9291 237.633 82.0541 237.633 82.0541 217.008ZM88.9291 244.508 88.9291 265.133 82.0541 265.133 82.0541 244.508ZM88.9291 272.008 88.9291 292.633 82.0541 292.633 82.0541 272.008ZM88.9291 299.508 88.9291 320.133 82.0541 320.133 82.0541 299.508ZM88.9291 327.008 88.9291 347.633 82.0541 347.633 82.0541 327.008ZM88.9291 354.508 88.9291 375.133 82.0541 375.133 82.0541 354.508ZM88.9291 382.008 88.9291 384.137 85.4916 380.699 103.988 380.699 103.988 387.574 82.0541 387.574 82.0541 382.008ZM110.863 380.699 131.488 380.699 131.488 387.574 110.863 387.574ZM138.363 380.699 148.067 380.699 148.067 387.574 138.363 387.574ZM143.483 370.387 170.983 384.137 143.483 397.887Z" fill="#70AD47" fill-rule="nonzero" fill-opacity="1" transform="matrix(1.83697e-16 1 1 -1.83697e-16 2388.5 1301.5)"/><path d="M2203.8 295.5 2203.8 367.769 1185.5 367.769 1188.94 364.331 1188.94 410.245 1182.06 410.245 1182.06 360.894 2200.37 360.894 2196.93 364.331 2196.93 295.5ZM1199.25 405.661 1185.5 433.161 1171.75 405.661Z" fill="#4472C4" fill-rule="nonzero" fill-opacity="1"/><path d="M0-3.4375 72.2678-3.4375 72.2678 316.921 68.8303 313.483 114.744 313.483 114.744 320.358 65.3928 320.358 65.3928 0 68.8303 3.4375 0 3.4375ZM110.161 303.171 137.661 316.921 110.161 330.671Z" fill="#4472C4" fill-rule="nonzero" fill-opacity="1" transform="matrix(1.83697e-16 1 1 -1.83697e-16 2200.5 295.5)"/><path d="M3139.55 1301.5 3139.55 1322.12 3132.67 1322.12 3132.67 1301.5ZM3139.55 1329 3139.55 1349.62 3132.67 1349.62 3132.67 1329ZM3139.55 1356.5 3139.55 1377.12 3132.67 1377.12 3132.67 1356.5ZM3139.55 1384 3139.55 1390.43 3118.48 1390.43 3118.48 1383.55 3136.11 1383.55 3132.67 1386.99 3132.67 1384ZM3111.6 1390.43 3090.98 1390.43 3090.98 1383.55 3111.6 1383.55ZM3084.1 1390.43 3063.48 1390.43 3063.48 1383.55 3084.1 1383.55ZM3056.6 1390.43 3035.98 1390.43 3035.98 1383.55 3056.6 1383.55ZM3029.1 1390.43 3008.48 1390.43 3008.48 1383.55 3029.1 1383.55ZM3001.6 1390.43 2980.98 1390.43 2980.98 1383.55 3001.6 1383.55ZM2974.1 1390.43 2953.48 1390.43 2953.48 1383.55 2974.1 1383.55ZM2946.6 1390.43 2925.98 1390.43 2925.98 1383.55 2946.6 1383.55ZM2919.1 1390.43 2898.48 1390.43 2898.48 1383.55 2919.1 1383.55ZM2891.6 1390.43 2870.98 1390.43 2870.98 1383.55 2891.6 1383.55ZM2864.1 1390.43 2843.48 1390.43 2843.48 1383.55 2864.1 1383.55ZM2836.6 1390.43 2815.98 1390.43 2815.98 1383.55 2836.6 1383.55ZM2809.1 1390.43 2788.48 1390.43 2788.48 1383.55 2809.1 1383.55ZM2781.6 1390.43 2772.5 1390.43 2775.94 1386.99 2775.94 1398.51 2769.06 1398.51 2769.06 1383.55 2781.6 1383.55ZM2775.94 1405.39 2775.94 1426.01 2769.06 1426.01 2769.06 1405.39ZM2775.94 1432.89 2775.94 1449.57 2769.06 1449.57 2769.06 1432.89ZM2786.25 1444.98 2772.5 1472.48 2758.75 1444.98Z" fill="#70AD47" fill-rule="nonzero" fill-opacity="1"/><path d="M0-3.4375 20.625-3.4375 20.625 3.4375 0 3.4375ZM27.5-3.4375 48.125-3.4375 48.125 3.4375 27.5 3.4375ZM55-3.4375 75.625-3.4375 75.625 3.4375 55 3.4375ZM82.5-3.4375 103.125-3.4375 103.125 3.4375 82.5 3.4375ZM110-3.4375 130.625-3.4375 130.625 3.4375 110 3.4375ZM137.5-3.4375 158.125-3.4375 158.125 3.4375 137.5 3.4375ZM165-3.4375 185.625-3.4375 185.625 3.4375 165 3.4375ZM192.5-3.4375 213.125-3.4375 213.125 3.4375 192.5 3.4375ZM220-3.4375 240.625-3.4375 240.625 3.4375 220 3.4375ZM247.5-3.4375 268.125-3.4375 268.125 3.4375 247.5 3.4375ZM275-3.4375 295.625-3.4375 295.625 3.4375 275 3.4375ZM302.5-3.4375 323.125-3.4375 323.125 3.4375 302.5 3.4375ZM330-3.4375 350.625-3.4375 350.625 3.4375 330 3.4375ZM357.5-3.4375 378.125-3.4375 378.125 3.4375 357.5 3.4375ZM385-3.4375 405.625-3.4375 405.625 3.4375 385 3.4375ZM412.5-3.4375 433.125-3.4375 433.125 3.4375 412.5 3.4375ZM440-3.4375 460.625-3.4375 460.625 3.4375 440 3.4375ZM467.5-3.4375 488.125-3.4375 488.125 3.4375 467.5 3.4375ZM495-3.4375 515.625-3.4375 515.625 3.4375 495 3.4375ZM522.5-3.4375 543.125-3.4375 543.125 3.4375 522.5 3.4375ZM550-3.4375 570.625-3.4375 570.625 3.4375 550 3.4375ZM577.5-3.4375 598.125-3.4375 598.125 3.4375 577.5 3.4375ZM605-3.4375 608.774-3.4375 608.774 20.2887 601.899 20.2887 601.899 0 605.336 3.4375 605 3.4375ZM608.774 27.1637 608.774 47.7887 601.899 47.7887 601.899 27.1637ZM608.774 54.6637 608.774 75.2887 601.899 75.2887 601.899 54.6637ZM608.774 82.1637 608.774 102.789 601.899 102.789 601.899 82.1637ZM608.774 109.664 608.774 130.289 601.899 130.289 601.899 109.664ZM608.774 137.164 608.774 157.789 601.899 157.789 601.899 137.164ZM608.774 164.664 608.774 185.289 601.899 185.289 601.899 164.664ZM608.774 192.164 608.774 212.789 601.899 212.789 601.899 192.164ZM608.774 219.664 608.774 240.289 601.899 240.289 601.899 219.664ZM608.774 247.164 608.774 267.789 601.899 267.789 601.899 247.164ZM608.774 274.664 608.774 295.289 601.899 295.289 601.899 274.664ZM608.774 302.164 608.774 322.789 601.899 322.789 601.899 302.164ZM608.774 329.664 608.774 350.289 601.899 350.289 601.899 329.664ZM608.774 357.164 608.774 377.789 601.899 377.789 601.899 357.164ZM608.774 384.664 608.774 405.289 601.899 405.289 601.899 384.664ZM608.774 412.164 608.774 432.789 601.899 432.789 601.899 412.164ZM608.774 439.664 608.774 460.289 601.899 460.289 601.899 439.664ZM608.774 467.164 608.774 487.789 601.899 487.789 601.899 467.164ZM608.774 494.664 608.774 515.289 601.899 515.289 601.899 494.664ZM608.774 522.164 608.774 542.789 601.899 542.789 601.899 522.164ZM608.774 549.664 608.774 570.289 601.899 570.289 601.899 549.664ZM608.774 577.164 608.774 597.789 601.899 597.789 601.899 577.164ZM608.774 604.664 608.774 625.289 601.899 625.289 601.899 604.664ZM608.774 632.164 608.774 652.789 601.899 652.789 601.899 632.164ZM608.774 659.664 608.774 680.289 601.899 680.289 601.899 659.664ZM608.774 687.164 608.774 707.789 601.899 707.789 601.899 687.164ZM608.774 714.664 608.774 735.289 601.899 735.289 601.899 714.664ZM608.774 742.164 608.774 762.789 601.899 762.789 601.899 742.164ZM608.774 769.664 608.774 782.317 605.336 778.879 613.308 778.879 613.308 785.754 601.899 785.754 601.899 769.664ZM620.183 778.879 640.808 778.879 640.808 785.754 620.183 785.754ZM647.683 778.879 667.752 778.879 667.752 785.754 647.683 785.754ZM663.168 768.567 690.668 782.317 663.168 796.067Z" fill="#70AD47" fill-rule="nonzero" fill-opacity="1" transform="matrix(1.83697e-16 1 1 -1.83697e-16 1734.5 1041.5)"/><path d="M2775.59 1561.5 2775.59 1582.13 2768.71 1582.13 2768.71 1561.5ZM2775.59 1589 2775.59 1609.63 2768.71 1609.63 2768.71 1589ZM2775.59 1616.5 2775.59 1637.13 2768.71 1637.13 2768.71 1616.5ZM2775.59 1644 2775.59 1650.43 2754.52 1650.43 2754.52 1643.55 2772.15 1643.55 2768.71 1646.99 2768.71 1644ZM2747.64 1650.43 2727.02 1650.43 2727.02 1643.55 2747.64 1643.55ZM2720.14 1650.43 2699.52 1650.43 2699.52 1643.55 2720.14 1643.55ZM2692.64 1650.43 2672.02 1650.43 2672.02 1643.55 2692.64 1643.55ZM2665.14 1650.43 2644.52 1650.43 2644.52 1643.55 2665.14 1643.55ZM2637.64 1650.43 2617.02 1650.43 2617.02 1643.55 2637.64 1643.55ZM2610.14 1650.43 2589.52 1650.43 2589.52 1643.55 2610.14 1643.55ZM2582.64 1650.43 2562.02 1650.43 2562.02 1643.55 2582.64 1643.55ZM2555.14 1650.43 2534.52 1650.43 2534.52 1643.55 2555.14 1643.55ZM2527.64 1650.43 2516.5 1650.43 2519.94 1646.99 2519.94 1656.48 2513.06 1656.48 2513.06 1643.55 2527.64 1643.55ZM2519.94 1663.35 2519.94 1683.98 2513.06 1683.98 2513.06 1663.35ZM2519.94 1690.85 2519.94 1709.57 2513.06 1709.57 2513.06 1690.85ZM2530.25 1704.98 2516.5 1732.48 2502.75 1704.98Z" fill="#70AD47" fill-rule="nonzero" fill-opacity="1"/><path d="M2488.52 1821.5 2488.52 1842.13 2481.64 1842.13 2481.64 1821.5ZM2488.52 1849 2488.52 1869.63 2481.64 1869.63 2481.64 1849ZM2488.52 1876.5 2488.52 1897.13 2481.64 1897.13 2481.64 1876.5ZM2488.52 1904 2488.52 1910.43 2467.45 1910.43 2467.45 1903.55 2485.08 1903.55 2481.64 1906.99 2481.64 1904ZM2460.57 1910.43 2439.95 1910.43 2439.95 1903.55 2460.57 1903.55ZM2433.07 1910.43 2412.45 1910.43 2412.45 1903.55 2433.07 1903.55ZM2405.57 1910.43 2384.95 1910.43 2384.95 1903.55 2405.57 1903.55ZM2378.07 1910.43 2357.45 1910.43 2357.45 1903.55 2378.07 1903.55ZM2350.57 1910.43 2329.95 1910.43 2329.95 1903.55 2350.57 1903.55ZM2323.07 1910.43 2302.45 1910.43 2302.45 1903.55 2323.07 1903.55ZM2295.57 1910.43 2274.95 1910.43 2274.95 1903.55 2295.57 1903.55ZM2268.07 1910.43 2247.45 1910.43 2247.45 1903.55 2268.07 1903.55ZM2240.57 1910.43 2219.95 1910.43 2219.95 1903.55 2240.57 1903.55ZM2213.07 1910.43 2200.5 1910.43 2203.94 1906.99 2203.94 1915.04 2197.06 1915.04 2197.06 1903.55 2213.07 1903.55ZM2203.94 1921.92 2203.94 1942.54 2197.06 1942.54 2197.06 1921.92ZM2203.94 1949.42 2203.94 1969.57 2197.06 1969.57 2197.06 1949.42ZM2214.25 1964.98 2200.5 1992.48 2186.75 1964.98Z" fill="#70AD47" fill-rule="nonzero" fill-opacity="1"/><path d="M0-3.4375 20.625-3.4375 20.625 3.4375 0 3.4375ZM27.5-3.4375 48.125-3.4375 48.125 3.4375 27.5 3.4375ZM55-3.4375 75.625-3.4375 75.625 3.4375 55 3.4375ZM82.5-3.4375 103.125-3.4375 103.125 3.4375 82.5 3.4375ZM110-3.4375 130.625-3.4375 130.625 3.4375 110 3.4375ZM137.5-3.4375 158.125-3.4375 158.125 3.4375 137.5 3.4375ZM165-3.4375 185.625-3.4375 185.625 3.4375 165 3.4375ZM192.5-3.4375 213.125-3.4375 213.125 3.4375 192.5 3.4375ZM220-3.4375 240.625-3.4375 240.625 3.4375 220 3.4375ZM247.5-3.4375 268.125-3.4375 268.125 3.4375 247.5 3.4375ZM275-3.4375 295.625-3.4375 295.625 3.4375 275 3.4375ZM302.5-3.4375 323.125-3.4375 323.125 3.4375 302.5 3.4375ZM330-3.4375 350.625-3.4375 350.625 3.4375 330 3.4375ZM357.5-3.4375 378.125-3.4375 378.125 3.4375 357.5 3.4375ZM385-3.4375 405.625-3.4375 405.625 3.4375 385 3.4375ZM412.5-3.4375 433.125-3.4375 433.125 3.4375 412.5 3.4375ZM440-3.4375 460.625-3.4375 460.625 3.4375 440 3.4375ZM467.5-3.4375 488.125-3.4375 488.125 3.4375 467.5 3.4375ZM495-3.4375 515.625-3.4375 515.625 3.4375 495 3.4375ZM522.5-3.4375 543.125-3.4375 543.125 3.4375 522.5 3.4375ZM550-3.4375 570.625-3.4375 570.625 3.4375 550 3.4375ZM577.5-3.4375 598.125-3.4375 598.125 3.4375 577.5 3.4375ZM605-3.4375 625.625-3.4375 625.625 3.4375 605 3.4375ZM632.5-3.4375 653.125-3.4375 653.125 3.4375 632.5 3.4375ZM660-3.4375 680.625-3.4375 680.625 3.4375 660 3.4375ZM687.5-3.4375 708.125-3.4375 708.125 3.4375 687.5 3.4375ZM715-3.4375 735.625-3.4375 735.625 3.4375 715 3.4375ZM742.5-3.4375 763.125-3.4375 763.125 3.4375 742.5 3.4375ZM770-3.4375 790.625-3.4375 790.625 3.4375 770 3.4375ZM797.5-3.4375 818.125-3.4375 818.125 3.4375 797.5 3.4375ZM825-3.4375 845.625-3.4375 845.625 3.4375 825 3.4375ZM852.5-3.4375 873.125-3.4375 873.125 3.4375 852.5 3.4375ZM880-3.4375 900.625-3.4375 900.625 3.4375 880 3.4375ZM907.5-3.4375 928.125-3.4375 928.125 3.4375 907.5 3.4375ZM935-3.4375 955.625-3.4375 955.625 3.4375 935 3.4375ZM962.5-3.4375 983.125-3.4375 983.125 3.4375 962.5 3.4375ZM990-3.4375 1010.62-3.4375 1010.62 3.4375 990 3.4375ZM1017.5-3.4375 1038.12-3.4375 1038.12 3.4375 1017.5 3.4375ZM1045-3.4375 1065.62-3.4375 1065.62 3.4375 1045 3.4375ZM1072.5-3.4375 1093.12-3.4375 1093.12 3.4375 1072.5 3.4375ZM1100-3.4375 1120.62-3.4375 1120.62 3.4375 1100 3.4375ZM1128.62 2.31882 1128.62 22.9438 1121.74 22.9438 1121.74 2.31882ZM1128.62 29.8188 1128.62 50.4438 1121.74 50.4438 1121.74 29.8188ZM1128.62 57.3188 1128.62 77.9438 1121.74 77.9438 1121.74 57.3188ZM1128.62 84.8188 1128.62 105.444 1121.74 105.444 1121.74 84.8188ZM1128.62 112.319 1128.62 132.944 1121.74 132.944 1121.74 112.319ZM1128.62 139.819 1128.62 160.444 1121.74 160.444 1121.74 139.819ZM1128.62 167.319 1128.62 187.944 1121.74 187.944 1121.74 167.319ZM1128.62 194.819 1128.62 215.444 1121.74 215.444 1121.74 194.819ZM1128.62 222.319 1128.62 242.944 1121.74 242.944 1121.74 222.319ZM1128.62 249.819 1128.62 270.444 1121.74 270.444 1121.74 249.819ZM1128.62 277.319 1128.62 297.944 1121.74 297.944 1121.74 277.319ZM1128.62 304.819 1128.62 325.444 1121.74 325.444 1121.74 304.819ZM1128.62 332.319 1128.62 352.944 1121.74 352.944 1121.74 332.319ZM1128.62 359.819 1128.62 380.444 1121.74 380.444 1121.74 359.819ZM1128.62 387.319 1128.62 407.944 1121.74 407.944 1121.74 387.319ZM1128.62 414.819 1128.62 435.444 1121.74 435.444 1121.74 414.819ZM1128.62 442.319 1128.62 462.944 1121.74 462.944 1121.74 442.319ZM1128.62 469.819 1128.62 490.444 1121.74 490.444 1121.74 469.819ZM1128.62 497.319 1128.62 517.944 1121.74 517.944 1121.74 497.319ZM1128.62 524.819 1128.62 545.444 1121.74 545.444 1121.74 524.819ZM1128.62 552.319 1128.62 572.944 1121.74 572.944 1121.74 552.319ZM1128.62 579.819 1128.62 600.444 1121.74 600.444 1121.74 579.819ZM1128.62 607.319 1128.62 627.944 1121.74 627.944 1121.74 607.319ZM1128.62 634.819 1128.62 655.444 1121.74 655.444 1121.74 634.819ZM1128.62 662.319 1128.62 682.944 1121.74 682.944 1121.74 662.319ZM1128.62 689.819 1128.62 710.444 1121.74 710.444 1121.74 689.819ZM1128.62 717.319 1128.62 737.944 1121.74 737.944 1121.74 717.319ZM1128.62 744.819 1128.62 765.444 1121.74 765.444 1121.74 744.819ZM1128.62 772.319 1128.62 792.944 1121.74 792.944 1121.74 772.319ZM1128.62 799.819 1128.62 820.444 1121.74 820.444 1121.74 799.819ZM1128.62 827.319 1128.62 847.944 1121.74 847.944 1121.74 827.319ZM1128.62 854.819 1128.62 875.444 1121.74 875.444 1121.74 854.819ZM1128.62 882.319 1128.62 902.944 1121.74 902.944 1121.74 882.319ZM1128.62 909.819 1128.62 930.444 1121.74 930.444 1121.74 909.819ZM1128.62 937.319 1128.62 957.944 1121.74 957.944 1121.74 937.319ZM1128.62 964.819 1128.62 985.444 1121.74 985.444 1121.74 964.819ZM1128.62 992.319 1128.62 1012.94 1121.74 1012.94 1121.74 992.319ZM1128.62 1019.82 1128.62 1022.89 1125.18 1019.46 1142.73 1019.46 1142.73 1026.33 1121.74 1026.33 1121.74 1019.82ZM1149.61 1019.46 1170.23 1019.46 1170.23 1026.33 1149.61 1026.33ZM1177.11 1019.46 1187.44 1019.46 1187.44 1026.33 1177.11 1026.33ZM1182.85 1009.14 1210.35 1022.89 1182.85 1036.64Z" fill="#70AD47" fill-rule="nonzero" fill-opacity="1" transform="matrix(1.83697e-16 1 1 -1.83697e-16 1177.5 782.5)"/><path d="M0-3.4375 68.3981-3.4375 68.3981 103.937 64.9606 100.5 107.005 100.5 107.005 107.375 61.5231 107.375 61.5231 0 64.9606 3.4375 0 3.4375ZM102.421 90.187 129.921 103.937 102.421 117.687Z" fill="#4472C4" fill-rule="nonzero" fill-opacity="1" transform="matrix(1.83697e-16 1 1 -1.83697e-16 1621.5 2196.5)"/><path d="M1624.87 2196.5 1624.87 2264.9 1517.5 2264.9 1520.94 2261.46 1520.94 2303.5 1514.06 2303.5 1514.06 2258.02 1621.44 2258.02 1618 2261.46 1618 2196.5ZM1531.25 2298.92 1517.5 2326.42 1503.75 2298.92Z" fill="#4472C4" fill-rule="nonzero" fill-opacity="1"/><text fill="#4472C4" fill-opacity="1" font-family="Cambria Math,Cambria Math_MSFontService,sans-serif" font-style="normal" font-variant="normal" font-weight="400" font-stretch="normal" font-size="64" text-anchor="start" direction="ltr" writing-mode="lr-tb" unicode-bidi="normal" text-decoration="none" transform="matrix(1 0 0 1 1310.51 2390)">s</text><text fill="#4472C4" fill-opacity="1" font-family="Cambria Math,Cambria Math_MSFontService,sans-serif" font-style="normal" font-variant="normal" font-weight="400" font-stretch="normal" font-size="64" text-anchor="start" direction="ltr" writing-mode="lr-tb" unicode-bidi="normal" text-decoration="none" transform="matrix(1 0 0 1 1338.01 2390)">plit</text><text fill="#4472C4" fill-opacity="1" font-family="Cambria Math,Cambria Math_MSFontService,sans-serif" font-style="normal" font-variant="normal" font-weight="400" font-stretch="normal" font-size="64" text-anchor="start" direction="ltr" writing-mode="lr-tb" unicode-bidi="normal" text-decoration="none" transform="matrix(1 0 0 1 1444.57 2390)">into sub</text><text fill="#4472C4" fill-opacity="1" font-family="Cambria Math,Cambria Math_MSFontService,sans-serif" font-style="normal" font-variant="normal" font-weight="400" font-stretch="normal" font-size="64" text-anchor="start" direction="ltr" writing-mode="lr-tb" unicode-bidi="normal" text-decoration="none" transform="matrix(1 0 0 1 1666.29 2390)">-</text><text fill="#4472C4" fill-opacity="1" font-family="Cambria Math,Cambria Math_MSFontService,sans-serif" font-style="normal" font-variant="normal" font-weight="400" font-stretch="normal" font-size="64" text-anchor="start" direction="ltr" writing-mode="lr-tb" unicode-bidi="normal" text-decoration="none" transform="matrix(1 0 0 1 1687.49 2390)">formulas</text><path d="M0-3.4375 20.625-3.4375 20.625 3.4375 0 3.4375ZM27.5-3.4375 48.125-3.4375 48.125 3.4375 27.5 3.4375ZM55-3.4375 68.3981-3.4375 68.3981 10.6644 61.5231 10.6644 61.5231 0 64.9606 3.4375 55 3.4375ZM68.3981 17.5394 68.3981 38.1644 61.5231 38.1644 61.5231 17.5394ZM68.3981 45.0394 68.3981 65.6644 61.5231 65.6644 61.5231 45.0394ZM68.3981 72.5394 68.3981 93.1644 61.5231 93.1644 61.5231 72.5394ZM68.3981 100.039 68.3981 103.937 64.9606 100.5 81.688 100.5 81.688 107.375 61.5231 107.375 61.5231 100.039ZM88.563 100.5 107.005 100.5 107.005 107.375 88.563 107.375ZM102.421 90.187 129.921 103.937 102.421 117.687Z" fill="#70AD47" fill-rule="nonzero" fill-opacity="1" transform="matrix(1.83697e-16 1 1 -1.83697e-16 2653.5 2200.5)"/><path d="M2864.87 2200.5 2864.87 2221.12 2858 2221.12 2858 2200.5ZM2864.87 2228 2864.87 2248.62 2858 2248.62 2858 2228ZM2864.87 2255.5 2864.87 2268.9 2850.77 2268.9 2850.77 2262.02 2861.44 2262.02 2858 2265.46 2858 2255.5ZM2843.9 2268.9 2823.27 2268.9 2823.27 2262.02 2843.9 2262.02ZM2816.4 2268.9 2795.77 2268.9 2795.77 2262.02 2816.4 2262.02ZM2788.9 2268.9 2768.27 2268.9 2768.27 2262.02 2788.9 2262.02ZM2761.4 2268.9 2757.5 2268.9 2760.94 2265.46 2760.94 2282.19 2754.06 2282.19 2754.06 2262.02 2761.4 2262.02ZM2760.94 2289.06 2760.94 2307.5 2754.06 2307.5 2754.06 2289.06ZM2771.25 2302.92 2757.5 2330.42 2743.75 2302.92Z" fill="#70AD47" fill-rule="nonzero" fill-opacity="1"/><text fill="#70AD47" fill-opacity="1" font-family="Cambria Math,Cambria Math_MSFontService,sans-serif" font-style="normal" font-variant="normal" font-weight="400" font-stretch="normal" font-size="64" text-anchor="start" direction="ltr" writing-mode="lr-tb" unicode-bidi="normal" text-decoration="none" transform="matrix(1 0 0 1 2504.54 2390)">m</text><text fill="#70AD47" fill-opacity="1" font-family="Cambria Math,Cambria Math_MSFontService,sans-serif" font-style="normal" font-variant="normal" font-weight="400" font-stretch="normal" font-size="64" text-anchor="start" direction="ltr" writing-mode="lr-tb" unicode-bidi="normal" text-decoration="none" transform="matrix(1 0 0 1 2557.82 2390)">erge verbalisatio</text><text fill="#70AD47" fill-opacity="1" font-family="Cambria Math,Cambria Math_MSFontService,sans-serif" font-style="normal" font-variant="normal" font-weight="400" font-stretch="normal" font-size="64" text-anchor="start" direction="ltr" writing-mode="lr-tb" unicode-bidi="normal" text-decoration="none" transform="matrix(1 0 0 1 3016.73 2390)">n</text></g></g></svg>